<?xml version="1.0" encoding="UTF-8" standalone="no"?><!DOCTYPE svg PUBLIC "-//W3C//DTD SVG 1.1//EN" "http://www.w3.org/Graphics/SVG/1.1/DTD/svg11.dtd"><svg width="100%" height="100%" viewBox="0 0 165 69" version="1.1" xmlns="http://www.w3.org/2000/svg" xmlns:xlink="http://www.w3.org/1999/xlink" xml:space="preserve" style="fill-rule:evenodd;clip-rule:evenodd;stroke-linejoin:round;stroke-miterlimit:1.41421;"><rect id="Artboard1" x="0" y="0" width="164.959" height="68.31" style="fill:none;"/><g><path d="M151.599,65.953c-0.05,-0.543 -0.033,-3.339 -0.116,-6.234c0.117,-0.004 0.428,0.017 0.428,0.017c0,0 2.357,7.322 6.988,5.983c0.782,-0.226 1.456,-0.795 1.705,-1.584c1.512,-4.802 -7.748,-3.939 -8.903,-8.367c-1.36,-5.209 5.406,-7.783 9.818,-5.07c0.257,0.494 0.854,4.524 0.87,4.53c0.016,0.006 -0.58,0.076 -0.641,0c-0.083,0 -1.016,-2.998 -3.323,-4.111c-0.476,-0.23 -3.425,-0.869 -4.069,1.594c-1.224,4.685 11.426,3.021 8.807,10.669c-0.554,1.62 -1.559,2.515 -2.928,3.15c-1.743,0.808 -4.286,0.564 -6.135,0.236c-0.798,-0.143 -1.731,-0.553 -2.501,-0.813Z"/><path d="M139.618,51.005c-7.776,0 -6.714,15.971 0.536,14.705c6.686,-1.168 6.017,-14.705 -0.536,-14.705Zm-0.749,-1.086c11.048,-1.059 13.945,14.875 2.24,16.764c-12.352,1.993 -15.37,-15.508 -2.24,-16.764Z"/><path d="M49.091,49.813c-0.059,0.413 0.006,2.536 -0.003,3.219c5.53,-7.159 8.927,0.662 5.661,1.559c-2.158,0.593 -1.829,-1.599 -3.658,-1.417c-0.645,0.063 -1.285,0.593 -1.747,1.944c-0.084,0.247 -0.245,0.724 -0.247,1.418c-0.006,2.938 -0.108,6.418 0.146,7.429c0.4,1.587 2.181,2.294 3.168,2.209l0,0.481c-2.45,-0.033 -6.894,-0.016 -9.838,0l0,-0.445c0.728,0.02 2.812,-1.036 2.802,-2.655c-0.028,-4.527 0.122,-7.62 -0.202,-8.808c-0.239,-0.876 -0.951,-1.559 -1.799,-1.905c-0.202,-0.081 -1.274,-0.354 -0.434,-0.618c2.427,-0.744 4.157,-1.406 6.151,-2.411Z"/><path d="M7.978,41.524c-0.052,-0.002 -0.025,10.998 -0.025,10.998c-0.001,0.397 4.157,0.091 5.139,-0.324c5.291,-2.241 4.548,-9.922 -1.45,-10.547c-1.666,-0.174 -3.664,-0.261 -3.664,-0.127Zm-0.024,23.535c1.92,0.783 3.412,0.847 5.263,0.481c6.01,-1.191 6.881,-10.153 0.409,-11.612c-1.507,-0.34 -5.672,-0.375 -5.672,-0.143c0,0 -0.011,10.058 0,11.274Zm8.423,-12.393c2.85,0.776 5.244,2.756 5.682,5.364c1.417,8.435 -8.799,9.062 -15.819,8.502c-2.209,-0.176 -4.318,0.132 -5.682,0.118l0,-0.857c1.509,-0.129 2.842,-0.5 2.842,-2.313l0,-20.283c0,-1.527 -1.359,-2.087 -2.778,-2.091c-0.055,-0.271 -0.038,-0.572 -0.018,-0.845c8.372,0.368 18.061,-1.577 19.642,5.211c1.162,4.987 -3.314,6.517 -3.869,7.194Z"/><path d="M35.004,57.631c-0.544,0.23 -4.946,2.025 -5.809,3.689c-0.366,0.707 -0.523,1.308 -0.078,2.224c1.075,2.215 5.869,0.377 5.892,-1.108c0.023,-1.533 0.002,-4.793 -0.005,-4.805Zm5.435,7.898c0.099,0.246 0.181,0.56 0.181,0.56c0,0 -0.675,0.333 -1.12,0.461c-3.865,1.118 -3.998,-2.376 -3.998,-2.376c-0.036,-0.022 -0.154,-0.507 -0.613,0.025c-2.312,2.692 -10.052,4.523 -9.535,-0.969c0.186,-1.969 1.486,-3.219 3.475,-4.344c2.287,-1.294 5.809,-2.066 6.095,-2.771c0.24,-0.591 0.133,-2.913 0.133,-3.56c0,-1.369 -1.658,-1.142 -2.225,-1.022c-1.831,0.393 -2.914,1.962 -2.904,2.459c0.052,2.75 -2.297,3.878 -3.563,3.028c-1.913,-1.286 -0.071,-4.28 3.031,-5.643c1.727,-0.757 3.148,-1.302 5.398,-1.426c3.186,-0.175 4.091,1.236 4.089,4.077c0,0 -0.044,10.768 -0.006,10.785c0,0 -0.069,1.029 1.562,0.716Z"/><path d="M88.578,57.634c-0.544,0.23 -4.947,2.025 -5.809,3.688c-0.366,0.707 -0.523,1.309 -0.078,2.224c1.076,2.215 5.869,0.378 5.892,-1.107c0.023,-1.533 0.002,-4.793 -0.005,-4.805Zm5.436,7.897c0.098,0.248 0.18,0.561 0.18,0.561c0,0 -0.675,0.332 -1.12,0.461c-3.865,1.119 -3.998,-2.377 -3.998,-2.377c-0.036,-0.022 -0.154,-0.507 -0.613,0.027c-2.311,2.69 -10.052,4.522 -9.534,-0.97c0.186,-1.969 1.485,-3.218 3.474,-4.344c2.287,-1.294 5.809,-2.067 6.096,-2.771c0.239,-0.591 0.131,-2.914 0.131,-3.561c0,-1.368 -1.657,-1.142 -2.224,-1.021c-1.832,0.393 -2.913,1.962 -2.904,2.46c0.052,2.747 -2.296,3.877 -3.563,3.026c-1.914,-1.286 -0.071,-4.278 3.031,-5.641c1.727,-0.759 3.148,-1.303 5.398,-1.426c3.187,-0.176 4.091,1.235 4.09,4.075c0,0 -0.044,10.769 -0.006,10.786c0,0 -0.07,1.028 1.562,0.715Z"/><path d="M119.188,51.03c-8.044,1.113 -6.143,15.029 0.505,13.944c1.327,-0.216 3.511,-2.443 3.477,-3.761c-0.037,-1.391 0.038,-6.66 -0.067,-7.876c-0.133,-1.554 -2.307,-2.529 -3.915,-2.307Zm7.455,-12.021c0.049,1.754 0,22.187 0,22.187c0.183,2.056 -0.172,2.758 2.209,4.077l0.034,0.298c-1.853,0.28 -3.886,0.754 -5.656,1.318c-0.011,-1.134 0,-2.404 0,-2.404c0,-1.811 -1.201,2.199 -5.859,2.411c-9.953,0.453 -10.373,-18.912 4.437,-16.787c1.191,0.17 1.453,0.96 1.323,-0.429l0,-5.221c0,0 0.13,-1.231 -2.783,-2.573c-0.136,-0.468 0.447,-0.543 0.707,-0.597c1.765,-0.373 3.958,-1.501 5.588,-2.28Z"/><path d="M63.9,49.867l0.059,-0.016c0,0.907 0,1.846 0,2.851c0.182,-0.089 1.499,-1.175 3.553,-1.952c0.821,-0.311 6.354,-1.769 6.478,3.187c0.043,1.699 0,7.834 0,8.769c0,3.216 2.954,3.53 2.954,3.53c0,0 0,0.226 -0.004,0.47c-3.422,0 -6.158,-0.003 -8.904,-0.003c0.026,-0.159 -0.019,-0.467 -0.019,-0.467c0,0 2.269,-0.154 2.269,-3.286c0,-2.125 0,-8.296 0,-8.296c-0.001,-3.04 -3.306,-3.371 -6.301,0.333c0,0 0,0.948 0,0.998c0,0 0.002,1.53 0.001,6.721c-0.001,1.007 0.155,3.151 2.548,3.53l0,0.476c-1.65,0.03 -7.699,0 -8.949,0c-0.017,-0.215 0,-0.476 0,-0.476c0,0 2.545,-0.42 2.545,-3.523c0,-3.057 0.006,-7.753 0.006,-7.753c-0.296,-1.846 -2.453,-2.333 -2.439,-2.34c0.015,-0.007 -0.012,-0.363 -0.013,-0.506c2.063,-0.661 4.06,-1.309 6.216,-2.247Z"/><path d="M102.558,49.871c-0.058,0.412 0.006,2.536 -0.004,3.22c5.53,-7.16 8.929,0.659 5.662,1.557c-2.16,0.594 -1.829,-1.599 -3.658,-1.417c-0.645,0.063 -1.285,0.593 -1.748,1.945c-0.083,0.246 -0.244,0.724 -0.246,1.417c-0.006,2.938 -0.11,6.419 0.146,7.43c0.4,1.586 2.182,2.293 3.169,2.209l0,0.481c-2.451,-0.033 -6.895,-0.017 -9.839,0l0,-0.446c0.728,0.021 2.813,-1.036 2.803,-2.655c-0.029,-4.527 0.121,-7.619 -0.202,-8.807c-0.24,-0.877 -0.952,-1.561 -1.8,-1.906c-0.202,-0.081 -1.274,-0.354 -0.434,-0.617c2.427,-0.743 4.158,-1.407 6.151,-2.411Z"/><path d="M108.917,9.316c1.182,-0.751 1.29,-2.754 0.239,-4.474c-1.05,-1.72 -2.858,-2.505 -4.041,-1.754c-1.183,0.752 -1.291,2.755 -0.242,4.475c1.051,1.719 2.86,2.505 4.044,1.753Z" style="fill:#7ac32e;"/><path d="M137.388,9.316c1.182,0.752 2.993,-0.034 4.042,-1.753c1.05,-1.72 0.942,-3.723 -0.24,-4.475c-1.184,-0.751 -2.993,0.034 -4.042,1.754c-1.051,1.72 -0.943,3.723 0.24,4.474Z" style="fill:#7ac32e;"/><path d="M145.184,12.728c-3.758,-2.364 -6.162,-1.427 -9.84,-4.008c-2.819,-1.98 -3.747,-3.841 -4.565,-5.873c-0.561,-1.393 -0.806,-1.826 -1.223,-1.826c-0.259,0 -0.586,0.047 -0.586,1.41c0,0.01 0.003,0.023 0.003,0.033c-0.004,0.044 -0.013,0.081 -0.013,0.132c0,1.698 -1.129,7.406 -5.844,7.406c-4.332,-0.011 -5.783,-5.467 -5.783,-7.506c0,-0.009 0,-0.053 0,-0.065c0,-1.363 -0.327,-1.41 -0.586,-1.41c-0.416,0 -0.66,0.433 -1.221,1.826c-0.82,2.032 -1.745,3.893 -4.567,5.873c-3.675,2.581 -6.082,1.644 -9.839,4.008c-3.743,2.356 -5.782,6.718 -4.815,7.285c0.689,0.404 1.507,-0.778 2.319,-1.824c1.608,-2.075 4.694,-3.756 5.996,-2.572c1.549,1.41 -0.084,3.658 -1.398,6.852c-1.134,2.754 -1.012,5.992 -0.766,8.683c0.446,4.879 -1.751,6.449 -0.461,7.288c1.316,0.856 3.51,-3.066 3.991,-7.838c0.247,-2.442 0.159,-4.869 1.095,-4.869c1.079,0 1.08,4.712 0.744,7.044c-0.652,4.52 -3.01,6.776 -2.59,11.385c0.295,3.249 2.307,3.382 2.35,0.096c0.067,-5.368 5.118,-8.12 4.741,-17.516c-0.224,-5.62 -1.027,-9.853 1.9,-15.91c0.529,-1.093 1.361,-2.93 2.031,-4.654c0.233,0.62 0.734,1.858 1.065,2.408c3.388,5.603 3.409,5.619 2.103,10.69c-1.759,6.836 1.62,9.643 1.008,14.134c-0.355,2.61 1.219,2.689 1.885,0.032c0.804,-3.21 -0.519,-5.134 -0.454,-8.383c0.034,-1.688 0.574,-4.921 1.623,-4.711c0.65,0.13 0.129,1.621 0,3.444c-0.194,2.762 0.683,6.466 1.885,6.108c1.173,-0.348 -0.168,-1.679 0.618,-5.1c0.461,-2.01 1.331,-4.517 0.797,-6.843c-1.067,-4.641 1.498,-8.039 2.104,-9.162c0.441,-0.819 0.869,-1.796 1.127,-2.692c0.677,1.745 1.526,3.62 2.061,4.729c2.927,6.057 2.124,10.29 1.898,15.91c-0.375,9.396 4.674,12.148 4.743,17.516c0.042,3.286 2.054,3.153 2.351,-0.096c0.419,-4.609 -1.939,-6.865 -2.591,-11.385c-0.336,-2.332 -0.335,-7.044 0.743,-7.044c0.936,0 0.848,2.427 1.096,4.869c0.48,4.772 2.674,8.694 3.99,7.838c1.291,-0.839 -0.907,-2.409 -0.46,-7.288c0.246,-2.691 0.366,-5.929 -0.767,-8.683c-1.313,-3.194 -2.947,-5.442 -1.397,-6.852c1.301,-1.184 4.388,0.497 5.997,2.572c0.811,1.046 1.628,2.228 2.318,1.824c0.967,-0.567 -1.073,-4.929 -4.816,-7.285Z" style="fill:#7ac32e;"/><path d="M123.126,9.616c1.184,0 2.146,-1.36 2.146,-3.038c0,-1.677 -0.962,-3.036 -2.146,-3.036c-1.187,0 -2.148,1.359 -2.148,3.036c0,1.678 0.961,3.038 2.148,3.038Z" style="fill:#7ac32e;"/></g></svg>