<?xml version="1.0" encoding="UTF-8" standalone="no"?><!DOCTYPE svg PUBLIC "-//W3C//DTD SVG 1.1//EN" "http://www.w3.org/Graphics/SVG/1.1/DTD/svg11.dtd"><svg width="100%" height="100%" viewBox="0 0 174 147" version="1.1" xmlns="http://www.w3.org/2000/svg" xmlns:xlink="http://www.w3.org/1999/xlink" xml:space="preserve" style="fill-rule:evenodd;clip-rule:evenodd;stroke-linejoin:round;stroke-miterlimit:1.41421;"><rect id="Artboard1" x="0" y="0" width="173.646" height="146.825" style="fill:none;"/><rect x="0" y="0" width="2.6" height="140.483" style="fill:#2bbaad;"/><g transform="matrix(2.58116,0,0,2.58116,-232.716,-0.866869)"><path d="M96.15,29.031l0,-6.648l1.92,0c0.528,0 0.972,0.074 1.332,0.222c0.36,0.148 0.654,0.364 0.882,0.648c0.228,0.284 0.392,0.628 0.492,1.032c0.1,0.404 0.15,0.862 0.15,1.374c0,0.528 -0.054,0.978 -0.162,1.35c-0.108,0.372 -0.246,0.682 -0.414,0.93c-0.168,0.248 -0.358,0.444 -0.57,0.588c-0.212,0.144 -0.426,0.254 -0.642,0.33c-0.216,0.076 -0.42,0.124 -0.612,0.144c-0.192,0.02 -0.352,0.03 -0.48,0.03l-1.896,0Zm-1.14,-7.608l0,8.568l2.94,0c0.712,0 1.328,-0.1 1.848,-0.3c0.52,-0.2 0.948,-0.49 1.284,-0.87c0.336,-0.38 0.584,-0.848 0.744,-1.404c0.16,-0.556 0.24,-1.194 0.24,-1.914c0,-1.376 -0.356,-2.4 -1.068,-3.072c-0.712,-0.672 -1.728,-1.008 -3.048,-1.008l-2.94,0Z" style="fill-rule:nonzero;"/><path d="M107.598,26.295l-3.564,0c0.016,-0.24 0.068,-0.466 0.156,-0.678c0.088,-0.212 0.208,-0.398 0.36,-0.558c0.152,-0.16 0.334,-0.286 0.546,-0.378c0.212,-0.092 0.45,-0.138 0.714,-0.138c0.256,0 0.49,0.046 0.702,0.138c0.212,0.092 0.396,0.216 0.552,0.372c0.156,0.156 0.28,0.342 0.372,0.558c0.092,0.216 0.146,0.444 0.162,0.684Zm0.984,1.728l-1.008,0c-0.088,0.408 -0.27,0.712 -0.546,0.912c-0.276,0.2 -0.63,0.3 -1.062,0.3c-0.336,0 -0.628,-0.056 -0.876,-0.168c-0.248,-0.112 -0.452,-0.262 -0.612,-0.45c-0.16,-0.188 -0.276,-0.404 -0.348,-0.648c-0.072,-0.244 -0.104,-0.502 -0.096,-0.774l4.644,0c0.016,-0.376 -0.018,-0.772 -0.102,-1.188c-0.084,-0.416 -0.236,-0.8 -0.456,-1.152c-0.22,-0.352 -0.512,-0.642 -0.876,-0.87c-0.364,-0.228 -0.822,-0.342 -1.374,-0.342c-0.424,0 -0.814,0.08 -1.17,0.24c-0.356,0.16 -0.664,0.384 -0.924,0.672c-0.26,0.288 -0.462,0.628 -0.606,1.02c-0.144,0.392 -0.216,0.824 -0.216,1.296c0.016,0.472 0.086,0.908 0.21,1.308c0.124,0.4 0.31,0.744 0.558,1.032c0.248,0.288 0.554,0.512 0.918,0.672c0.364,0.16 0.794,0.24 1.29,0.24c0.704,0 1.288,-0.176 1.752,-0.528c0.464,-0.352 0.764,-0.876 0.9,-1.572Z" style="fill-rule:nonzero;"/><path d="M109.77,23.787l0,8.568l1.02,0l0,-3.192l0.024,0c0.112,0.184 0.25,0.338 0.414,0.462c0.164,0.124 0.338,0.222 0.522,0.294c0.184,0.072 0.37,0.124 0.558,0.156c0.188,0.032 0.358,0.048 0.51,0.048c0.472,0 0.886,-0.084 1.242,-0.252c0.356,-0.168 0.652,-0.398 0.888,-0.69c0.236,-0.292 0.412,-0.634 0.528,-1.026c0.116,-0.392 0.174,-0.808 0.174,-1.248c0,-0.44 -0.06,-0.856 -0.18,-1.248c-0.12,-0.392 -0.298,-0.738 -0.534,-1.038c-0.236,-0.3 -0.532,-0.538 -0.888,-0.714c-0.356,-0.176 -0.774,-0.264 -1.254,-0.264c-0.432,0 -0.828,0.078 -1.188,0.234c-0.36,0.156 -0.624,0.406 -0.792,0.75l-0.024,0l0,-0.84l-1.02,0Zm4.8,3.048c0,0.304 -0.032,0.6 -0.096,0.888c-0.064,0.288 -0.168,0.544 -0.312,0.768c-0.144,0.224 -0.334,0.404 -0.57,0.54c-0.236,0.136 -0.53,0.204 -0.882,0.204c-0.352,0 -0.652,-0.066 -0.9,-0.198c-0.248,-0.132 -0.45,-0.306 -0.606,-0.522c-0.156,-0.216 -0.27,-0.466 -0.342,-0.75c-0.072,-0.284 -0.108,-0.578 -0.108,-0.882c0,-0.288 0.034,-0.572 0.102,-0.852c0.068,-0.28 0.178,-0.53 0.33,-0.75c0.152,-0.22 0.348,-0.398 0.588,-0.534c0.24,-0.136 0.532,-0.204 0.876,-0.204c0.328,0 0.614,0.064 0.858,0.192c0.244,0.128 0.444,0.3 0.6,0.516c0.156,0.216 0.272,0.462 0.348,0.738c0.076,0.276 0.114,0.558 0.114,0.846Z" style="fill-rule:nonzero;"/><path d="M122.346,29.967c-0.176,0.104 -0.42,0.156 -0.732,0.156c-0.264,0 -0.474,-0.074 -0.63,-0.222c-0.156,-0.148 -0.234,-0.39 -0.234,-0.726c-0.28,0.336 -0.606,0.578 -0.978,0.726c-0.372,0.148 -0.774,0.222 -1.206,0.222c-0.28,0 -0.546,-0.032 -0.798,-0.096c-0.252,-0.064 -0.47,-0.164 -0.654,-0.3c-0.184,-0.136 -0.33,-0.314 -0.438,-0.534c-0.108,-0.22 -0.162,-0.486 -0.162,-0.798c0,-0.352 0.06,-0.64 0.18,-0.864c0.12,-0.224 0.278,-0.406 0.474,-0.546c0.196,-0.14 0.42,-0.246 0.672,-0.318c0.252,-0.072 0.51,-0.132 0.774,-0.18c0.28,-0.056 0.546,-0.098 0.798,-0.126c0.252,-0.028 0.474,-0.068 0.666,-0.12c0.192,-0.052 0.344,-0.128 0.456,-0.228c0.112,-0.1 0.168,-0.246 0.168,-0.438c0,-0.224 -0.042,-0.404 -0.126,-0.54c-0.084,-0.136 -0.192,-0.24 -0.324,-0.312c-0.132,-0.072 -0.28,-0.12 -0.444,-0.144c-0.164,-0.024 -0.326,-0.036 -0.486,-0.036c-0.432,0 -0.792,0.082 -1.08,0.246c-0.288,0.164 -0.444,0.474 -0.468,0.93l-1.02,0c0.016,-0.384 0.096,-0.708 0.24,-0.972c0.144,-0.264 0.336,-0.478 0.576,-0.642c0.24,-0.164 0.514,-0.282 0.822,-0.354c0.308,-0.072 0.638,-0.108 0.99,-0.108c0.28,0 0.558,0.02 0.834,0.06c0.276,0.04 0.526,0.122 0.75,0.246c0.224,0.124 0.404,0.298 0.54,0.522c0.136,0.224 0.204,0.516 0.204,0.876l0,3.192c0,0.24 0.014,0.416 0.042,0.528c0.028,0.112 0.122,0.168 0.282,0.168c0.088,0 0.192,-0.02 0.312,-0.06l0,0.792Zm-1.656,-3.18c-0.128,0.096 -0.296,0.166 -0.504,0.21c-0.208,0.044 -0.426,0.08 -0.654,0.108c-0.228,0.028 -0.458,0.06 -0.69,0.096c-0.232,0.036 -0.44,0.094 -0.624,0.174c-0.184,0.08 -0.334,0.194 -0.45,0.342c-0.116,0.148 -0.174,0.35 -0.174,0.606c0,0.168 0.034,0.31 0.102,0.426c0.068,0.116 0.156,0.21 0.264,0.282c0.108,0.072 0.234,0.124 0.378,0.156c0.144,0.032 0.296,0.048 0.456,0.048c0.336,0 0.624,-0.046 0.864,-0.138c0.24,-0.092 0.436,-0.208 0.588,-0.348c0.152,-0.14 0.264,-0.292 0.336,-0.456c0.072,-0.164 0.108,-0.318 0.108,-0.462l0,-1.044Z" style="fill-rule:nonzero;"/><path d="M123.258,23.787l0,6.204l1.02,0l0,-2.76c0,-0.4 0.04,-0.754 0.12,-1.062c0.08,-0.308 0.208,-0.57 0.384,-0.786c0.176,-0.216 0.408,-0.38 0.696,-0.492c0.288,-0.112 0.636,-0.168 1.044,-0.168l0,-1.08c-0.552,-0.016 -1.008,0.096 -1.368,0.336c-0.36,0.24 -0.664,0.612 -0.912,1.116l-0.024,0l0,-1.308l-0.96,0Z" style="fill-rule:nonzero;"/><path d="M128.706,23.787l0,-1.86l-1.02,0l0,1.86l-1.056,0l0,0.9l1.056,0l0,3.948c0,0.288 0.028,0.52 0.084,0.696c0.056,0.176 0.142,0.312 0.258,0.408c0.116,0.096 0.268,0.162 0.456,0.198c0.188,0.036 0.414,0.054 0.678,0.054l0.78,0l0,-0.9l-0.468,0c-0.16,0 -0.29,-0.006 -0.39,-0.018c-0.1,-0.012 -0.178,-0.038 -0.234,-0.078c-0.056,-0.04 -0.094,-0.096 -0.114,-0.168c-0.02,-0.072 -0.03,-0.168 -0.03,-0.288l0,-3.852l1.236,0l0,-0.9l-1.236,0Z" style="fill-rule:nonzero;"/><path d="M131.07,23.787l0,6.204l1.02,0l0,-3.864c0,-0.12 0.03,-0.27 0.09,-0.45c0.06,-0.18 0.156,-0.354 0.288,-0.522c0.132,-0.168 0.304,-0.312 0.516,-0.432c0.212,-0.12 0.466,-0.18 0.762,-0.18c0.232,0 0.422,0.034 0.57,0.102c0.148,0.068 0.266,0.164 0.354,0.288c0.088,0.124 0.15,0.27 0.186,0.438c0.036,0.168 0.054,0.352 0.054,0.552l0,4.068l1.02,0l0,-3.864c0,-0.48 0.144,-0.864 0.432,-1.152c0.288,-0.288 0.684,-0.432 1.188,-0.432c0.248,0 0.45,0.036 0.606,0.108c0.156,0.072 0.278,0.17 0.366,0.294c0.088,0.124 0.148,0.27 0.18,0.438c0.032,0.168 0.048,0.348 0.048,0.54l0,4.068l1.02,0l0,-4.548c0,-0.32 -0.05,-0.594 -0.15,-0.822c-0.1,-0.228 -0.24,-0.414 -0.42,-0.558c-0.18,-0.144 -0.396,-0.25 -0.648,-0.318c-0.252,-0.068 -0.534,-0.102 -0.846,-0.102c-0.408,0 -0.782,0.092 -1.122,0.276c-0.34,0.184 -0.614,0.444 -0.822,0.78c-0.128,-0.384 -0.348,-0.656 -0.66,-0.816c-0.312,-0.16 -0.66,-0.24 -1.044,-0.24c-0.872,0 -1.54,0.352 -2.004,1.056l-0.024,0l0,-0.912l-0.96,0Z" style="fill-rule:nonzero;"/><path d="M145.614,26.295l-3.564,0c0.016,-0.24 0.068,-0.466 0.156,-0.678c0.088,-0.212 0.208,-0.398 0.36,-0.558c0.152,-0.16 0.334,-0.286 0.546,-0.378c0.212,-0.092 0.45,-0.138 0.714,-0.138c0.256,0 0.49,0.046 0.702,0.138c0.212,0.092 0.396,0.216 0.552,0.372c0.156,0.156 0.28,0.342 0.372,0.558c0.092,0.216 0.146,0.444 0.162,0.684Zm0.984,1.728l-1.008,0c-0.088,0.408 -0.27,0.712 -0.546,0.912c-0.276,0.2 -0.63,0.3 -1.062,0.3c-0.336,0 -0.628,-0.056 -0.876,-0.168c-0.248,-0.112 -0.452,-0.262 -0.612,-0.45c-0.16,-0.188 -0.276,-0.404 -0.348,-0.648c-0.072,-0.244 -0.104,-0.502 -0.096,-0.774l4.644,0c0.016,-0.376 -0.018,-0.772 -0.102,-1.188c-0.084,-0.416 -0.236,-0.8 -0.456,-1.152c-0.22,-0.352 -0.512,-0.642 -0.876,-0.87c-0.364,-0.228 -0.822,-0.342 -1.374,-0.342c-0.424,0 -0.814,0.08 -1.17,0.24c-0.356,0.16 -0.664,0.384 -0.924,0.672c-0.26,0.288 -0.462,0.628 -0.606,1.02c-0.144,0.392 -0.216,0.824 -0.216,1.296c0.016,0.472 0.086,0.908 0.21,1.308c0.124,0.4 0.31,0.744 0.558,1.032c0.248,0.288 0.554,0.512 0.918,0.672c0.364,0.16 0.794,0.24 1.29,0.24c0.704,0 1.288,-0.176 1.752,-0.528c0.464,-0.352 0.764,-0.876 0.9,-1.572Z" style="fill-rule:nonzero;"/><path d="M147.75,23.787l0,6.204l1.02,0l0,-3.504c0,-0.28 0.038,-0.538 0.114,-0.774c0.076,-0.236 0.19,-0.442 0.342,-0.618c0.152,-0.176 0.342,-0.312 0.57,-0.408c0.228,-0.096 0.498,-0.144 0.81,-0.144c0.392,0 0.7,0.112 0.924,0.336c0.224,0.224 0.336,0.528 0.336,0.912l0,4.2l1.02,0l0,-4.08c0,-0.336 -0.034,-0.642 -0.102,-0.918c-0.068,-0.276 -0.186,-0.514 -0.354,-0.714c-0.168,-0.2 -0.388,-0.356 -0.66,-0.468c-0.272,-0.112 -0.612,-0.168 -1.02,-0.168c-0.92,0 -1.592,0.376 -2.016,1.128l-0.024,0l0,-0.984l-0.96,0Z" style="fill-rule:nonzero;"/><path d="M155.838,23.787l0,-1.86l-1.02,0l0,1.86l-1.056,0l0,0.9l1.056,0l0,3.948c0,0.288 0.028,0.52 0.084,0.696c0.056,0.176 0.142,0.312 0.258,0.408c0.116,0.096 0.268,0.162 0.456,0.198c0.188,0.036 0.414,0.054 0.678,0.054l0.78,0l0,-0.9l-0.468,0c-0.16,0 -0.29,-0.006 -0.39,-0.018c-0.1,-0.012 -0.178,-0.038 -0.234,-0.078c-0.056,-0.04 -0.094,-0.096 -0.114,-0.168c-0.02,-0.072 -0.03,-0.168 -0.03,-0.288l0,-3.852l1.236,0l0,-0.9l-1.236,0Z" style="fill-rule:nonzero;"/><path d="M95.262,37.023l0,5.304l1.02,0l0,-5.304l1.2,0l0,-0.9l-1.2,0l0,-0.864c0,-0.272 0.068,-0.456 0.204,-0.552c0.136,-0.096 0.328,-0.144 0.576,-0.144c0.088,0 0.184,0.006 0.288,0.018c0.104,0.012 0.2,0.034 0.288,0.066l0,-0.888c-0.096,-0.032 -0.206,-0.056 -0.33,-0.072c-0.124,-0.016 -0.234,-0.024 -0.33,-0.024c-0.56,0 -0.986,0.13 -1.278,0.39c-0.292,0.26 -0.438,0.642 -0.438,1.146l0,0.924l-1.044,0l0,0.9l1.044,0Z" style="fill-rule:nonzero;"/><path d="M99.138,39.231c0,-0.376 0.05,-0.71 0.15,-1.002c0.1,-0.292 0.238,-0.538 0.414,-0.738c0.176,-0.2 0.382,-0.352 0.618,-0.456c0.236,-0.104 0.486,-0.156 0.75,-0.156c0.264,0 0.514,0.052 0.75,0.156c0.236,0.104 0.442,0.256 0.618,0.456c0.176,0.2 0.314,0.446 0.414,0.738c0.1,0.292 0.15,0.626 0.15,1.002c0,0.376 -0.05,0.71 -0.15,1.002c-0.1,0.292 -0.238,0.536 -0.414,0.732c-0.176,0.196 -0.382,0.346 -0.618,0.45c-0.236,0.104 -0.486,0.156 -0.75,0.156c-0.264,0 -0.514,-0.052 -0.75,-0.156c-0.236,-0.104 -0.442,-0.254 -0.618,-0.45c-0.176,-0.196 -0.314,-0.44 -0.414,-0.732c-0.1,-0.292 -0.15,-0.626 -0.15,-1.002Zm-1.08,0c0,0.456 0.064,0.88 0.192,1.272c0.128,0.392 0.32,0.734 0.576,1.026c0.256,0.292 0.572,0.52 0.948,0.684c0.376,0.164 0.808,0.246 1.296,0.246c0.496,0 0.93,-0.082 1.302,-0.246c0.372,-0.164 0.686,-0.392 0.942,-0.684c0.256,-0.292 0.448,-0.634 0.576,-1.026c0.128,-0.392 0.192,-0.816 0.192,-1.272c0,-0.456 -0.064,-0.882 -0.192,-1.278c-0.128,-0.396 -0.32,-0.74 -0.576,-1.032c-0.256,-0.292 -0.57,-0.522 -0.942,-0.69c-0.372,-0.168 -0.806,-0.252 -1.302,-0.252c-0.488,0 -0.92,0.084 -1.296,0.252c-0.376,0.168 -0.692,0.398 -0.948,0.69c-0.256,0.292 -0.448,0.636 -0.576,1.032c-0.128,0.396 -0.192,0.822 -0.192,1.278Z" style="fill-rule:nonzero;"/><path d="M105.246,36.123l0,6.204l1.02,0l0,-2.76c0,-0.4 0.04,-0.754 0.12,-1.062c0.08,-0.308 0.208,-0.57 0.384,-0.786c0.176,-0.216 0.408,-0.38 0.696,-0.492c0.288,-0.112 0.636,-0.168 1.044,-0.168l0,-1.08c-0.552,-0.016 -1.008,0.096 -1.368,0.336c-0.36,0.24 -0.664,0.612 -0.912,1.116l-0.024,0l0,-1.308l-0.96,0Z" style="fill-rule:nonzero;"/><path d="M120.522,42.327l2.292,-8.568l-1.14,0l-1.74,7.128l-0.024,0l-1.896,-7.128l-1.236,0l-1.92,7.128l-0.024,0l-1.68,-7.128l-1.164,0l2.196,8.568l1.188,0l1.98,-7.2l0.024,0l1.956,7.2l1.188,0Z" style="fill-rule:nonzero;"/><path d="M123.786,39.231c0,-0.376 0.05,-0.71 0.15,-1.002c0.1,-0.292 0.238,-0.538 0.414,-0.738c0.176,-0.2 0.382,-0.352 0.618,-0.456c0.236,-0.104 0.486,-0.156 0.75,-0.156c0.264,0 0.514,0.052 0.75,0.156c0.236,0.104 0.442,0.256 0.618,0.456c0.176,0.2 0.314,0.446 0.414,0.738c0.1,0.292 0.15,0.626 0.15,1.002c0,0.376 -0.05,0.71 -0.15,1.002c-0.1,0.292 -0.238,0.536 -0.414,0.732c-0.176,0.196 -0.382,0.346 -0.618,0.45c-0.236,0.104 -0.486,0.156 -0.75,0.156c-0.264,0 -0.514,-0.052 -0.75,-0.156c-0.236,-0.104 -0.442,-0.254 -0.618,-0.45c-0.176,-0.196 -0.314,-0.44 -0.414,-0.732c-0.1,-0.292 -0.15,-0.626 -0.15,-1.002Zm-1.08,0c0,0.456 0.064,0.88 0.192,1.272c0.128,0.392 0.32,0.734 0.576,1.026c0.256,0.292 0.572,0.52 0.948,0.684c0.376,0.164 0.808,0.246 1.296,0.246c0.496,0 0.93,-0.082 1.302,-0.246c0.372,-0.164 0.686,-0.392 0.942,-0.684c0.256,-0.292 0.448,-0.634 0.576,-1.026c0.128,-0.392 0.192,-0.816 0.192,-1.272c0,-0.456 -0.064,-0.882 -0.192,-1.278c-0.128,-0.396 -0.32,-0.74 -0.576,-1.032c-0.256,-0.292 -0.57,-0.522 -0.942,-0.69c-0.372,-0.168 -0.806,-0.252 -1.302,-0.252c-0.488,0 -0.92,0.084 -1.296,0.252c-0.376,0.168 -0.692,0.398 -0.948,0.69c-0.256,0.292 -0.448,0.636 -0.576,1.032c-0.128,0.396 -0.192,0.822 -0.192,1.278Z" style="fill-rule:nonzero;"/><path d="M129.894,36.123l0,6.204l1.02,0l0,-2.76c0,-0.4 0.04,-0.754 0.12,-1.062c0.08,-0.308 0.208,-0.57 0.384,-0.786c0.176,-0.216 0.408,-0.38 0.696,-0.492c0.288,-0.112 0.636,-0.168 1.044,-0.168l0,-1.08c-0.552,-0.016 -1.008,0.096 -1.368,0.336c-0.36,0.24 -0.664,0.612 -0.912,1.116l-0.024,0l0,-1.308l-0.96,0Z" style="fill-rule:nonzero;"/><path d="M133.986,33.759l0,8.568l1.02,0l0,-2.352l0.96,-0.888l2.124,3.24l1.296,0l-2.64,-3.948l2.46,-2.256l-1.368,0l-2.832,2.712l0,-5.076l-1.02,0Z" style="fill-rule:nonzero;"/><path d="M146.022,37.059c-0.096,-0.12 -0.192,-0.24 -0.288,-0.36c-0.096,-0.12 -0.184,-0.242 -0.264,-0.366c-0.08,-0.124 -0.146,-0.25 -0.198,-0.378c-0.052,-0.128 -0.078,-0.256 -0.078,-0.384c0,-0.312 0.104,-0.542 0.312,-0.69c0.208,-0.148 0.432,-0.222 0.672,-0.222c0.304,0 0.544,0.09 0.72,0.27c0.176,0.18 0.264,0.394 0.264,0.642c0,0.184 -0.036,0.35 -0.108,0.498c-0.072,0.148 -0.164,0.282 -0.276,0.402c-0.112,0.12 -0.236,0.228 -0.372,0.324c-0.136,0.096 -0.264,0.184 -0.384,0.264Zm2.196,4.2l0.912,1.068l1.332,0l-1.668,-1.932c0.088,-0.192 0.164,-0.362 0.228,-0.51c0.064,-0.148 0.118,-0.298 0.162,-0.45c0.044,-0.152 0.08,-0.318 0.108,-0.498c0.028,-0.18 0.054,-0.398 0.078,-0.654l-0.972,0c-0.024,0.44 -0.116,0.884 -0.276,1.332l-1.548,-1.884c0.208,-0.12 0.408,-0.254 0.6,-0.402c0.192,-0.148 0.364,-0.314 0.516,-0.498c0.152,-0.184 0.272,-0.386 0.36,-0.606c0.088,-0.22 0.132,-0.458 0.132,-0.714c0,-0.288 -0.058,-0.542 -0.174,-0.762c-0.116,-0.22 -0.27,-0.404 -0.462,-0.552c-0.192,-0.148 -0.414,-0.258 -0.666,-0.33c-0.252,-0.072 -0.51,-0.108 -0.774,-0.108c-0.312,0 -0.588,0.048 -0.828,0.144c-0.24,0.096 -0.442,0.226 -0.606,0.39c-0.164,0.164 -0.288,0.352 -0.372,0.564c-0.084,0.212 -0.126,0.434 -0.126,0.666c0,0.216 0.026,0.41 0.078,0.582c0.052,0.172 0.124,0.336 0.216,0.492c0.092,0.156 0.194,0.31 0.306,0.462c0.112,0.152 0.228,0.312 0.348,0.48c-0.272,0.144 -0.53,0.298 -0.774,0.462c-0.244,0.164 -0.456,0.348 -0.636,0.552c-0.18,0.204 -0.324,0.434 -0.432,0.69c-0.108,0.256 -0.162,0.552 -0.162,0.888c0,0.176 0.03,0.396 0.09,0.66c0.06,0.264 0.186,0.52 0.378,0.768c0.192,0.248 0.464,0.46 0.816,0.636c0.352,0.176 0.816,0.264 1.392,0.264c0.472,0 0.93,-0.1 1.374,-0.3c0.444,-0.2 0.794,-0.5 1.05,-0.9Zm-2.532,-3.072l1.968,2.364c-0.208,0.312 -0.466,0.56 -0.774,0.744c-0.308,0.184 -0.658,0.276 -1.05,0.276c-0.208,0 -0.41,-0.036 -0.606,-0.108c-0.196,-0.072 -0.37,-0.17 -0.522,-0.294c-0.152,-0.124 -0.274,-0.276 -0.366,-0.456c-0.092,-0.18 -0.138,-0.378 -0.138,-0.594c0,-0.256 0.04,-0.478 0.12,-0.666c0.08,-0.188 0.188,-0.358 0.324,-0.51c0.136,-0.152 0.294,-0.288 0.474,-0.408c0.18,-0.12 0.37,-0.236 0.57,-0.348Z" style="fill-rule:nonzero;"/><path d="M96.15,50.199l0,-3.144l2.232,0c0.648,0 1.122,0.134 1.422,0.402c0.3,0.268 0.45,0.658 0.45,1.17c0,0.512 -0.15,0.904 -0.45,1.176c-0.3,0.272 -0.774,0.404 -1.422,0.396l-2.232,0Zm-1.14,-4.104l0,8.568l1.14,0l0,-3.504l2.616,0c0.864,0.008 1.518,-0.212 1.962,-0.66c0.444,-0.448 0.666,-1.072 0.666,-1.872c0,-0.8 -0.222,-1.422 -0.666,-1.866c-0.444,-0.444 -1.098,-0.666 -1.962,-0.666l-3.756,0Z" style="fill-rule:nonzero;"/><path d="M106.926,50.967l-3.564,0c0.016,-0.24 0.068,-0.466 0.156,-0.678c0.088,-0.212 0.208,-0.398 0.36,-0.558c0.152,-0.16 0.334,-0.286 0.546,-0.378c0.212,-0.092 0.45,-0.138 0.714,-0.138c0.256,0 0.49,0.046 0.702,0.138c0.212,0.092 0.396,0.216 0.552,0.372c0.156,0.156 0.28,0.342 0.372,0.558c0.092,0.216 0.146,0.444 0.162,0.684Zm0.984,1.728l-1.008,0c-0.088,0.408 -0.27,0.712 -0.546,0.912c-0.276,0.2 -0.63,0.3 -1.062,0.3c-0.336,0 -0.628,-0.056 -0.876,-0.168c-0.248,-0.112 -0.452,-0.262 -0.612,-0.45c-0.16,-0.188 -0.276,-0.404 -0.348,-0.648c-0.072,-0.244 -0.104,-0.502 -0.096,-0.774l4.644,0c0.016,-0.376 -0.018,-0.772 -0.102,-1.188c-0.084,-0.416 -0.236,-0.8 -0.456,-1.152c-0.22,-0.352 -0.512,-0.642 -0.876,-0.87c-0.364,-0.228 -0.822,-0.342 -1.374,-0.342c-0.424,0 -0.814,0.08 -1.17,0.24c-0.356,0.16 -0.664,0.384 -0.924,0.672c-0.26,0.288 -0.462,0.628 -0.606,1.02c-0.144,0.392 -0.216,0.824 -0.216,1.296c0.016,0.472 0.086,0.908 0.21,1.308c0.124,0.4 0.31,0.744 0.558,1.032c0.248,0.288 0.554,0.512 0.918,0.672c0.364,0.16 0.794,0.24 1.29,0.24c0.704,0 1.288,-0.176 1.752,-0.528c0.464,-0.352 0.764,-0.876 0.9,-1.572Z" style="fill-rule:nonzero;"/><path d="M109.062,48.459l0,6.204l1.02,0l0,-3.504c0,-0.28 0.038,-0.538 0.114,-0.774c0.076,-0.236 0.19,-0.442 0.342,-0.618c0.152,-0.176 0.342,-0.312 0.57,-0.408c0.228,-0.096 0.498,-0.144 0.81,-0.144c0.392,0 0.7,0.112 0.924,0.336c0.224,0.224 0.336,0.528 0.336,0.912l0,4.2l1.02,0l0,-4.08c0,-0.336 -0.034,-0.642 -0.102,-0.918c-0.068,-0.276 -0.186,-0.514 -0.354,-0.714c-0.168,-0.2 -0.388,-0.356 -0.66,-0.468c-0.272,-0.112 -0.612,-0.168 -1.02,-0.168c-0.92,0 -1.592,0.376 -2.016,1.128l-0.024,0l0,-0.984l-0.96,0Z" style="fill-rule:nonzero;"/><path d="M116.358,52.707l-1.02,0c0.016,0.384 0.096,0.71 0.24,0.978c0.144,0.268 0.336,0.484 0.576,0.648c0.24,0.164 0.516,0.282 0.828,0.354c0.312,0.072 0.64,0.108 0.984,0.108c0.312,0 0.626,-0.03 0.942,-0.09c0.316,-0.06 0.6,-0.166 0.852,-0.318c0.252,-0.152 0.456,-0.352 0.612,-0.6c0.156,-0.248 0.234,-0.56 0.234,-0.936c0,-0.296 -0.058,-0.544 -0.174,-0.744c-0.116,-0.2 -0.268,-0.366 -0.456,-0.498c-0.188,-0.132 -0.404,-0.238 -0.648,-0.318c-0.244,-0.08 -0.494,-0.148 -0.75,-0.204c-0.24,-0.056 -0.48,-0.11 -0.72,-0.162c-0.24,-0.052 -0.456,-0.116 -0.648,-0.192c-0.192,-0.076 -0.35,-0.172 -0.474,-0.288c-0.124,-0.116 -0.186,-0.262 -0.186,-0.438c0,-0.16 0.04,-0.29 0.12,-0.39c0.08,-0.1 0.184,-0.18 0.312,-0.24c0.128,-0.06 0.27,-0.102 0.426,-0.126c0.156,-0.024 0.31,-0.036 0.462,-0.036c0.168,0 0.334,0.018 0.498,0.054c0.164,0.036 0.314,0.094 0.45,0.174c0.136,0.08 0.248,0.186 0.336,0.318c0.088,0.132 0.14,0.298 0.156,0.498l1.02,0c-0.024,-0.376 -0.104,-0.69 -0.24,-0.942c-0.136,-0.252 -0.318,-0.452 -0.546,-0.6c-0.228,-0.148 -0.49,-0.252 -0.786,-0.312c-0.296,-0.06 -0.62,-0.09 -0.972,-0.09c-0.272,0 -0.546,0.034 -0.822,0.102c-0.276,0.068 -0.524,0.172 -0.744,0.312c-0.22,0.14 -0.4,0.322 -0.54,0.546c-0.14,0.224 -0.21,0.492 -0.21,0.804c0,0.4 0.1,0.712 0.3,0.936c0.2,0.224 0.45,0.398 0.75,0.522c0.3,0.124 0.626,0.22 0.978,0.288c0.352,0.068 0.678,0.144 0.978,0.228c0.3,0.084 0.55,0.194 0.75,0.33c0.2,0.136 0.3,0.336 0.3,0.6c0,0.192 -0.048,0.35 -0.144,0.474c-0.096,0.124 -0.218,0.218 -0.366,0.282c-0.148,0.064 -0.31,0.108 -0.486,0.132c-0.176,0.024 -0.344,0.036 -0.504,0.036c-0.208,0 -0.41,-0.02 -0.606,-0.06c-0.196,-0.04 -0.372,-0.106 -0.528,-0.198c-0.156,-0.092 -0.282,-0.216 -0.378,-0.372c-0.096,-0.156 -0.148,-0.346 -0.156,-0.57Z" style="fill-rule:nonzero;"/><path d="M122.814,47.343l0,-1.248l-1.02,0l0,1.248l1.02,0Zm-1.02,1.116l0,6.204l1.02,0l0,-6.204l-1.02,0Z" style="fill-rule:nonzero;"/><path d="M125.142,51.567c0,-0.376 0.05,-0.71 0.15,-1.002c0.1,-0.292 0.238,-0.538 0.414,-0.738c0.176,-0.2 0.382,-0.352 0.618,-0.456c0.236,-0.104 0.486,-0.156 0.75,-0.156c0.264,0 0.514,0.052 0.75,0.156c0.236,0.104 0.442,0.256 0.618,0.456c0.176,0.2 0.314,0.446 0.414,0.738c0.1,0.292 0.15,0.626 0.15,1.002c0,0.376 -0.05,0.71 -0.15,1.002c-0.1,0.292 -0.238,0.536 -0.414,0.732c-0.176,0.196 -0.382,0.346 -0.618,0.45c-0.236,0.104 -0.486,0.156 -0.75,0.156c-0.264,0 -0.514,-0.052 -0.75,-0.156c-0.236,-0.104 -0.442,-0.254 -0.618,-0.45c-0.176,-0.196 -0.314,-0.44 -0.414,-0.732c-0.1,-0.292 -0.15,-0.626 -0.15,-1.002Zm-1.08,0c0,0.456 0.064,0.88 0.192,1.272c0.128,0.392 0.32,0.734 0.576,1.026c0.256,0.292 0.572,0.52 0.948,0.684c0.376,0.164 0.808,0.246 1.296,0.246c0.496,0 0.93,-0.082 1.302,-0.246c0.372,-0.164 0.686,-0.392 0.942,-0.684c0.256,-0.292 0.448,-0.634 0.576,-1.026c0.128,-0.392 0.192,-0.816 0.192,-1.272c0,-0.456 -0.064,-0.882 -0.192,-1.278c-0.128,-0.396 -0.32,-0.74 -0.576,-1.032c-0.256,-0.292 -0.57,-0.522 -0.942,-0.69c-0.372,-0.168 -0.806,-0.252 -1.302,-0.252c-0.488,0 -0.92,0.084 -1.296,0.252c-0.376,0.168 -0.692,0.398 -0.948,0.69c-0.256,0.292 -0.448,0.636 -0.576,1.032c-0.128,0.396 -0.192,0.822 -0.192,1.278Z" style="fill-rule:nonzero;"/><path d="M131.286,48.459l0,6.204l1.02,0l0,-3.504c0,-0.28 0.038,-0.538 0.114,-0.774c0.076,-0.236 0.19,-0.442 0.342,-0.618c0.152,-0.176 0.342,-0.312 0.57,-0.408c0.228,-0.096 0.498,-0.144 0.81,-0.144c0.392,0 0.7,0.112 0.924,0.336c0.224,0.224 0.336,0.528 0.336,0.912l0,4.2l1.02,0l0,-4.08c0,-0.336 -0.034,-0.642 -0.102,-0.918c-0.068,-0.276 -0.186,-0.514 -0.354,-0.714c-0.168,-0.2 -0.388,-0.356 -0.66,-0.468c-0.272,-0.112 -0.612,-0.168 -1.02,-0.168c-0.92,0 -1.592,0.376 -2.016,1.128l-0.024,0l0,-0.984l-0.96,0Z" style="fill-rule:nonzero;"/><path d="M138.582,52.707l-1.02,0c0.016,0.384 0.096,0.71 0.24,0.978c0.144,0.268 0.336,0.484 0.576,0.648c0.24,0.164 0.516,0.282 0.828,0.354c0.312,0.072 0.64,0.108 0.984,0.108c0.312,0 0.626,-0.03 0.942,-0.09c0.316,-0.06 0.6,-0.166 0.852,-0.318c0.252,-0.152 0.456,-0.352 0.612,-0.6c0.156,-0.248 0.234,-0.56 0.234,-0.936c0,-0.296 -0.058,-0.544 -0.174,-0.744c-0.116,-0.2 -0.268,-0.366 -0.456,-0.498c-0.188,-0.132 -0.404,-0.238 -0.648,-0.318c-0.244,-0.08 -0.494,-0.148 -0.75,-0.204c-0.24,-0.056 -0.48,-0.11 -0.72,-0.162c-0.24,-0.052 -0.456,-0.116 -0.648,-0.192c-0.192,-0.076 -0.35,-0.172 -0.474,-0.288c-0.124,-0.116 -0.186,-0.262 -0.186,-0.438c0,-0.16 0.04,-0.29 0.12,-0.39c0.08,-0.1 0.184,-0.18 0.312,-0.24c0.128,-0.06 0.27,-0.102 0.426,-0.126c0.156,-0.024 0.31,-0.036 0.462,-0.036c0.168,0 0.334,0.018 0.498,0.054c0.164,0.036 0.314,0.094 0.45,0.174c0.136,0.08 0.248,0.186 0.336,0.318c0.088,0.132 0.14,0.298 0.156,0.498l1.02,0c-0.024,-0.376 -0.104,-0.69 -0.24,-0.942c-0.136,-0.252 -0.318,-0.452 -0.546,-0.6c-0.228,-0.148 -0.49,-0.252 -0.786,-0.312c-0.296,-0.06 -0.62,-0.09 -0.972,-0.09c-0.272,0 -0.546,0.034 -0.822,0.102c-0.276,0.068 -0.524,0.172 -0.744,0.312c-0.22,0.14 -0.4,0.322 -0.54,0.546c-0.14,0.224 -0.21,0.492 -0.21,0.804c0,0.4 0.1,0.712 0.3,0.936c0.2,0.224 0.45,0.398 0.75,0.522c0.3,0.124 0.626,0.22 0.978,0.288c0.352,0.068 0.678,0.144 0.978,0.228c0.3,0.084 0.55,0.194 0.75,0.33c0.2,0.136 0.3,0.336 0.3,0.6c0,0.192 -0.048,0.35 -0.144,0.474c-0.096,0.124 -0.218,0.218 -0.366,0.282c-0.148,0.064 -0.31,0.108 -0.486,0.132c-0.176,0.024 -0.344,0.036 -0.504,0.036c-0.208,0 -0.41,-0.02 -0.606,-0.06c-0.196,-0.04 -0.372,-0.106 -0.528,-0.198c-0.156,-0.092 -0.282,-0.216 -0.378,-0.372c-0.096,-0.156 -0.148,-0.346 -0.156,-0.57Z" style="fill-rule:nonzero;"/></g><g><g><path d="M36,7.2c-0.3,0.5 -0.5,0.8 -0.4,1.1c0,0.4 0.4,0.6 0.6,1c0.2,-0.4 0.4,-0.8 0.4,-1.1c-0.1,-0.3 -0.6,-0.8 -0.6,-1" style="fill-rule:nonzero;"/><path d="M42.4,7.2c0.3,0.5 0.5,0.8 0.4,1.1c0,0.4 -0.4,0.6 -0.6,1c-0.2,-0.4 -0.4,-0.8 -0.4,-1.1c0,-0.3 0.5,-0.8 0.6,-1" style="fill-rule:nonzero;"/><path d="M32.3,6.9c0.2,0 0.4,-0.2 0.4,-0.4c0,-0.2 -0.2,-0.4 -0.4,-0.4c-0.2,0 -0.4,0.2 -0.4,0.4c-0.1,0.2 0.1,0.4 0.4,0.4" style="fill-rule:nonzero;"/><path d="M32.5,7.5c0,-0.2 -0.2,-0.4 -0.4,-0.4c-0.2,0 -0.4,0.2 -0.4,0.4c0,0.2 0.2,0.4 0.4,0.4c0.2,0 0.4,-0.2 0.4,-0.4" style="fill-rule:nonzero;"/><path d="M32.8,8.6c0,-0.2 -0.2,-0.4 -0.4,-0.4c-0.2,0 -0.4,0.2 -0.4,0.4c0,0.2 0.2,0.4 0.4,0.4c0.2,0 0.4,-0.2 0.4,-0.4" style="fill-rule:nonzero;"/><path d="M34.7,4.8c0.2,0 0.4,-0.2 0.4,-0.4c0,-0.2 -0.2,-0.4 -0.4,-0.4c-0.2,0 -0.4,0.2 -0.4,0.4c-0.1,0.2 0.1,0.4 0.4,0.4" style="fill-rule:nonzero;"/><path d="M33.6,5.1c0.2,0 0.4,-0.1 0.4,-0.4c0,-0.3 -0.2,-0.4 -0.4,-0.4c-0.2,0 -0.4,0.2 -0.4,0.4c0,0.2 0.1,0.4 0.4,0.4" style="fill-rule:nonzero;"/><path d="M32.7,5.9c0.2,0 0.4,-0.2 0.4,-0.4c0.1,-0.3 -0.1,-0.5 -0.4,-0.5c-0.2,0 -0.4,0.2 -0.4,0.4c0,0.3 0.2,0.5 0.4,0.5" style="fill-rule:nonzero;"/><path d="M35.8,4.9c0.2,0 0.4,-0.2 0.4,-0.4c0,-0.3 -0.2,-0.5 -0.4,-0.5c-0.2,0 -0.4,0.2 -0.4,0.4c0,0.3 0.2,0.5 0.4,0.5" style="fill-rule:nonzero;"/><path d="M36.9,5.2c0.2,0 0.4,-0.2 0.4,-0.4c0,-0.2 -0.2,-0.4 -0.4,-0.4c-0.2,0 -0.4,0.2 -0.4,0.4c-0.1,0.2 0.1,0.4 0.4,0.4" style="fill-rule:nonzero;"/><path d="M37.9,5.7c0.2,0 0.4,-0.2 0.4,-0.4c0,-0.2 -0.2,-0.4 -0.4,-0.4c-0.2,0 -0.4,0.2 -0.4,0.4c-0.1,0.2 0.1,0.4 0.4,0.4" style="fill-rule:nonzero;"/><path d="M45.6,6.4c0,0.2 0.2,0.4 0.4,0.4c0.2,0 0.4,-0.2 0.4,-0.4c0,-0.2 -0.2,-0.4 -0.4,-0.4c-0.2,0 -0.4,0.2 -0.4,0.4" style="fill-rule:nonzero;"/><path d="M46.2,7.1c-0.2,0 -0.4,0.2 -0.4,0.4c0,0.2 0.2,0.4 0.4,0.4c0.2,0 0.4,-0.2 0.4,-0.4c0.1,-0.2 -0.1,-0.4 -0.4,-0.4" style="fill-rule:nonzero;"/><path d="M46,8.1c-0.2,0 -0.4,0.2 -0.4,0.4c0,0.3 0.2,0.5 0.4,0.5c0.2,0 0.4,-0.2 0.4,-0.4c0,-0.3 -0.2,-0.5 -0.4,-0.5" style="fill-rule:nonzero;"/><path d="M43.7,4.8c0.2,0 0.4,-0.2 0.4,-0.4c0,-0.2 -0.2,-0.4 -0.4,-0.4c-0.2,0 -0.4,0.2 -0.4,0.4c-0.1,0.2 0.1,0.4 0.4,0.4" style="fill-rule:nonzero;"/><path d="M44.7,5.1c0.2,0 0.4,-0.2 0.4,-0.4c0,-0.2 -0.1,-0.4 -0.4,-0.4c-0.2,0 -0.4,0.2 -0.4,0.4c0,0.2 0.2,0.4 0.4,0.4" style="fill-rule:nonzero;"/><path d="M45.6,5.9c0.2,0 0.4,-0.2 0.4,-0.4c0,-0.3 -0.2,-0.5 -0.4,-0.5c-0.2,0 -0.4,0.2 -0.4,0.4c0,0.3 0.2,0.5 0.4,0.5" style="fill-rule:nonzero;"/><path d="M42.5,4.9c0.2,0 0.4,-0.2 0.4,-0.4c0.1,-0.3 -0.1,-0.5 -0.4,-0.5c-0.2,0 -0.4,0.2 -0.4,0.4c0,0.3 0.2,0.5 0.4,0.5" style="fill-rule:nonzero;"/><path d="M41.5,5.2c0.2,0 0.4,-0.2 0.4,-0.4c0,-0.2 -0.2,-0.4 -0.4,-0.4c-0.2,0 -0.4,0.2 -0.4,0.4c-0.1,0.2 0.1,0.4 0.4,0.4" style="fill-rule:nonzero;"/><path d="M40,5.3c0,0.2 0.2,0.4 0.4,0.4c0.2,0 0.4,-0.2 0.4,-0.4c0,-0.2 -0.2,-0.4 -0.4,-0.4c-0.2,-0.1 -0.4,0.1 -0.4,0.4" style="fill-rule:nonzero;"/><path d="M38.4,7.6l0.5,0l0,-1.8c-0.2,0 -0.3,-0.1 -0.5,-0.1l0,1.9Z" style="fill-rule:nonzero;"/><path d="M39.9,5.6c-0.2,0.1 -0.3,0.1 -0.5,0.2l0,1.9l0.5,0l0,-2.1Z" style="fill-rule:nonzero;"/><path d="M38.9,3.6l0,-1.1c-0.5,0.1 -1,0.6 -1.1,1.1l1.1,0Z" style="fill-rule:nonzero;"/><path d="M39.4,3.6l1.1,0c-0.1,-0.6 -0.5,-1 -1.1,-1.1l0,1.1Z" style="fill-rule:nonzero;"/><path d="M37.8,4.1c0.1,0.6 0.7,1.1 1.3,1.1c0.7,0 1.2,-0.5 1.3,-1.1l-2.6,0Z" style="fill-rule:nonzero;"/><path d="M39.9,33.5c-0.3,0 -0.5,-0.2 -0.5,-0.5c0,-0.3 0.2,-0.5 0.5,-0.5c0.3,0 0.5,0.2 0.5,0.5c0.1,0.2 -0.2,0.5 -0.5,0.5m-2.5,-0.8c-0.3,0 -0.6,-0.3 -0.6,-0.6c0,-0.3 0.3,-0.6 0.6,-0.6c0.3,0 0.6,0.3 0.6,0.6c0,0.3 -0.3,0.6 -0.6,0.6m-0.9,-2.6l-0.1,-0.1c-0.3,-0.2 -0.5,-0.2 -0.7,0c-0.1,0.1 -0.2,0.2 -0.3,0.3l-0.1,0.2l0.1,0.1c0.3,0.2 0.3,0.5 0.2,0.6c0,0.1 -0.1,0.1 -0.1,0.1c-0.1,0 -0.3,0 -0.5,-0.1l-0.1,-0.1l-0.1,0.1l0,0.1c0,0 0,0.1 -0.1,0.1c-0.1,0.2 -0.2,0.4 -0.2,0.5l0,0.1c0,0.2 0.2,0.2 0.3,0.3l0.1,0c0.1,0.1 0.3,0.2 0.4,0.3c-0.2,0.1 -0.5,0.2 -0.7,0c-0.4,-0.2 -0.6,-0.6 -0.6,-0.8c0,-0.3 0.1,-0.7 0.4,-1.2l0,-0.1l0,-0.1c-0.1,-0.1 -0.1,-0.3 -0.2,-0.4c0.1,0 0.3,0 0.4,0.1l0.1,0l0,-0.1c0.2,-0.2 0.7,-0.8 1.3,-0.8c0.2,0 0.5,0.1 0.7,0.3c0.1,0.2 0.2,0.3 0.3,0.5c-0.3,0.2 -0.4,0.1 -0.5,0.1m5,2c-1.4,-0.3 -3,-0.9 -4.5,-1.6c0,-0.3 -0.1,-0.7 -0.3,-0.9c-0.2,-0.3 -0.5,-0.4 -0.9,-0.4c-0.1,0 -0.3,0 -0.4,0.1c-0.2,-0.2 -0.4,-0.4 -0.6,-0.6c-0.6,-0.7 -1,-1.5 -1.3,-2.3c-0.2,-0.5 -0.3,-1 -0.4,-1.5c-0.1,0.4 -0.6,1 -1.4,1c0,-0.1 0,-0.3 -0.1,-0.3c-0.2,0.2 -0.6,0.5 -1.3,0.2c0.1,0.6 0.3,1.2 0.5,1.8c0.5,1.2 1.1,2.3 2,3.3c0.3,0.3 0.6,0.6 0.9,0.9c0,0.1 0,0.1 0,0.2c0,0.3 0.3,0.8 0.8,1c0.4,0.2 0.8,0.1 1.1,-0.1c0.7,0.4 1.5,0.7 2.4,0.9c1,0.3 2,0.4 2.8,0.4c0.7,0 1.5,-0.3 2.4,-0.9c0.3,-0.2 0.7,-0.5 0.9,-0.7l0.1,-0.1c-0.8,0 -1.9,-0.2 -2.7,-0.4" style="fill-rule:nonzero;"/><path d="M41.1,37.7c-0.1,-0.2 -0.2,-0.3 -0.4,-0.3c-0.6,0 -0.3,1.5 -1,1.5c-0.3,0 -0.4,-0.2 -0.4,-0.4c0,-0.2 0.1,-0.3 0.1,-0.4c0,-0.2 -0.1,-0.2 -0.3,-0.2c-0.1,0 -0.3,0.1 -0.3,0.2c0,0.2 0.1,0.2 0.1,0.4c0,0.2 -0.2,0.4 -0.4,0.4c-0.7,0 -0.4,-1.5 -1,-1.5c-0.1,0 -0.3,0.1 -0.4,0.3c-0.1,-0.2 -0.2,-0.4 -0.2,-0.6c0,-0.3 0.2,-0.6 0.6,-0.6c0.7,0 0.6,1 0.9,1c0.2,0 0.3,-0.1 0.3,-0.2c0,-0.3 -0.5,-0.6 -0.5,-1c0,-0.4 0.4,-0.8 0.8,-1.1c0.4,0.3 0.8,0.7 0.8,1.1c0,0.4 -0.5,0.7 -0.5,1c0,0.2 0.1,0.2 0.3,0.2c0.4,0 0.2,-1 0.9,-1c0.4,0 0.6,0.4 0.6,0.6c0.2,0.1 0.1,0.4 0,0.6m-1.9,2c-0.2,0 -0.4,-0.2 -0.4,-0.4c0,-0.2 0.2,-0.4 0.4,-0.4c0.2,0 0.4,0.2 0.4,0.4c-0.1,0.3 -0.2,0.4 -0.4,0.4m1.5,-3.5c-0.1,0 -0.2,0 -0.3,0l0,-1.6c-0.7,0 -1.6,-0.1 -2.4,-0.4l0,2c-0.1,0 -0.2,0 -0.3,0c-0.6,0 -0.9,0.5 -0.9,0.9c0,0.4 0.2,0.8 0.5,1.1c0.1,-0.3 0.2,-0.5 0.3,-0.5c0.3,0 0.2,1.4 1,1.5c0,0.1 0,0.1 0,0.2c0,0.4 0.3,0.7 0.7,0.7c0.4,0 0.7,-0.3 0.7,-0.7c0,-0.1 0,-0.2 0,-0.2c0.8,0 0.7,-1.5 1,-1.5c0.1,0 0.2,0.2 0.4,0.5c0.2,-0.2 0.5,-0.6 0.5,-1.1c-0.3,-0.5 -0.7,-0.9 -1.2,-0.9" style="fill-rule:nonzero;"/><path d="M59.9,38.1c0,-0.1 -0.1,-0.1 -0.2,-0.1c-1.9,0.6 -4.3,-1 -6.6,-2.6c-1.9,-1.3 -3.8,-2.5 -5.3,-2.5c-0.6,0 -1.1,0.1 -1.5,0.4c-0.5,0.3 -1,0.8 -1.2,1.4c-0.3,0.6 -0.5,1.1 -0.8,1.4c-0.3,0.4 -0.5,0.7 -0.5,1.1c0,0.3 0.1,0.6 0.4,0.9c0.2,0.2 0.5,0.4 1,0.7c0.1,0 0.2,0.1 0.3,0.1c0.4,0.2 0.6,0.3 0.7,0.5c-0.8,0.3 -1.7,0.6 -2.9,0.8c-1.3,0.2 -2.6,0.3 -4.1,0.3c-1.5,0 -2.8,-0.1 -4.1,-0.3c-1.1,-0.2 -2.1,-0.5 -2.9,-0.8c0,-0.3 0.3,-0.4 0.7,-0.6c0.1,0 0.2,-0.1 0.3,-0.1c0.4,-0.2 0.7,-0.4 1,-0.6c0.3,-0.2 0.4,-0.5 0.4,-0.8c0,-0.4 -0.2,-0.7 -0.5,-1.1c-0.2,-0.4 -0.5,-0.8 -0.8,-1.4c-0.3,-0.6 -0.7,-1.1 -1.2,-1.4c-0.4,-0.2 -1,-0.4 -1.5,-0.4c-1.6,0 -3.4,1.2 -5.3,2.5c-2.3,1.5 -4.7,3.1 -6.6,2.5c-0.1,0 -0.2,0 -0.2,0.1c0,0.1 0,0.2 0.1,0.2c0.6,0.3 1.1,0.7 1.6,1c0.7,0.5 1.3,1 2.1,1c0.7,0 1.4,-0.2 2.3,-0.7c0.8,-0.4 1.6,-0.9 2.3,-1.5c1.5,-1 3.1,-2.1 4.6,-2.2c-0.2,0.2 -0.3,0.3 -0.4,0.4c-0.4,0.4 -0.8,0.7 -0.8,1.4c0,0.5 0.2,0.9 0.4,1.5c0.1,0.2 0.2,0.3 0.2,0.5c0.2,0.4 0.2,0.7 0.3,1.1c0,0.2 0.1,0.4 0.2,0.6c0.1,0.4 0.3,1 1.4,1.6c1.3,0.6 3.4,1 6.5,1c3,0 5.2,-0.3 6.5,-1c1.1,-0.6 1.3,-1.2 1.4,-1.6c0.1,-0.2 0.1,-0.4 0.2,-0.6c0.1,-0.4 0.2,-0.7 0.3,-1.1c0.1,-0.3 0.2,-0.5 0.3,-0.7c0.2,-0.4 0.4,-0.8 0.4,-1.3c0,-0.7 -0.4,-1 -0.9,-1.5c-0.1,-0.1 -0.3,-0.3 -0.5,-0.4c1.5,0.1 3.1,1.2 4.6,2.2c0.8,0.5 1.6,1.1 2.3,1.5c0.9,0.5 1.6,0.7 2.3,0.7c0.7,0 1.4,-0.5 2.1,-1c0.5,-0.4 1,-0.8 1.6,-1c0,0.1 0,0 0,-0.1" style="fill-rule:nonzero;"/><path d="M39.4,23.2l0,-7.2c0.7,0 1.5,0.2 2.2,0.6c0.7,0.4 1.4,0.9 2,1.6c0.6,0.7 1,1.5 1.3,2.3c0.3,0.9 0.5,1.8 0.5,2.7l-6,0l0,0Zm-0.2,-10.1c-2,0 -3.4,0.6 -4.3,1.1c-0.5,-0.3 -0.7,-0.6 -0.7,-0.9c0,-1.2 3.3,-1.3 4.9,-1.3c1.7,0 4.9,0.1 4.9,1.3c0,0.3 -0.2,0.6 -0.7,0.9c-0.7,-0.5 -2.1,-1.1 -4.1,-1.1m-0.1,10.1l-6.1,0c0,-0.9 0.2,-1.9 0.5,-2.7c0.3,-0.9 0.8,-1.7 1.3,-2.3c0.6,-0.7 1.2,-1.2 2,-1.6c0.7,-0.4 1.5,-0.5 2.3,-0.6l0,7.2Zm9.3,-0.4c-0.2,-0.2 -0.6,-0.5 -0.7,-0.9c-0.2,-0.5 -1.2,-2.3 -1.3,-2.6c-0.1,-0.2 -0.2,-0.4 -0.2,-0.6c0,-0.2 0.1,-0.4 0.2,-0.5c0.1,-0.1 0.3,-0.3 0.4,-0.4c0.1,-0.1 0.1,-0.2 0.2,-0.2c-0.3,-0.6 -0.7,-1.1 -1.2,-1.6c-0.6,-0.6 -1.2,-1.2 -1.9,-1.6c0.4,-0.2 0.7,-0.6 0.7,-1.1c0,-0.3 -0.1,-0.6 -0.4,-0.8c0.4,-1.2 1.1,-2.7 1.7,-3.4l-1.2,-0.5c0.3,0.5 0.3,1.1 0.3,1.4c-0.3,-0.2 -0.6,-0.5 -0.7,-0.9c-0.1,0.4 -0.3,1 -0.5,1.3c0.4,-0.2 0.6,-0.2 1,-0.1c-0.2,0.3 -0.7,0.7 -1.5,0.5c-0.4,-0.1 -0.9,-0.3 -0.9,-0.7c0,-0.2 0.2,-0.4 0.4,-0.4c0.3,0 0.3,0.4 0.2,0.6c0.4,-0.2 0.7,-1.2 0.2,-1.4c-0.4,-0.1 -0.8,0.5 -1,0.9c-0.1,-0.6 -0.3,-1.1 -0.7,-1c-0.6,0 -0.4,1.1 -0.2,1.4c0,-0.4 0.2,-0.6 0.4,-0.5c0.2,0 0.4,0.1 0.3,0.5c0,0.3 -0.5,0.5 -1.1,0.5c-0.5,0 -1.4,-0.2 -1.5,-1.2c0.3,0.1 0.9,0.3 1.1,0.7c-0.1,-0.6 -0.1,-1 0,-1.7c-0.3,0.4 -0.8,0.6 -1.1,0.7c0.1,-0.4 0.5,-0.9 0.9,-1.2l-2.2,0c0.4,0.3 0.8,0.7 0.9,1.2c-0.3,-0.1 -0.8,-0.3 -1.1,-0.7c0.1,0.6 0.1,1.1 0,1.7c0.2,-0.3 0.7,-0.6 1.1,-0.7c-0.1,1 -1,1.2 -1.5,1.2c-0.5,0 -1,-0.2 -1.1,-0.5c0,-0.3 0.2,-0.4 0.3,-0.5c0.2,0 0.4,0.2 0.4,0.5c0.2,-0.3 0.4,-1.3 -0.2,-1.4c-0.4,0 -0.7,0.5 -0.7,1c-0.1,-0.5 -0.5,-1 -1,-0.9c-0.6,0.2 -0.2,1.2 0.2,1.4c-0.1,-0.2 -0.1,-0.6 0.2,-0.6c0.3,0 0.4,0.2 0.4,0.4c0,0.3 -0.4,0.6 -0.9,0.7c-0.8,0.2 -1.3,-0.2 -1.5,-0.5c0.4,-0.2 0.7,-0.1 1,0.1c-0.2,-0.4 -0.4,-1 -0.5,-1.3c-0.1,0.4 -0.4,0.7 -0.7,0.9c-0.1,-0.3 -0.1,-0.9 0.3,-1.4l-1.2,0.5c0.6,0.7 1.3,2.1 1.7,3.4c-0.2,0.2 -0.4,0.5 -0.4,0.8c0,0.6 0.4,0.9 0.7,1.1c-0.7,0.4 -1.3,1 -1.9,1.6c-0.8,0.9 -1.5,2 -2,3.3c0.2,0.2 0.9,1 1.1,1.2c0.3,0.4 0.5,0.8 0.5,1.1c0,0.6 0.1,0.8 0.4,1.2c0.1,0.1 0.2,0.6 0.2,0.8l6.1,0l0,6.7c-0.2,0 -0.5,0.1 -0.7,0.3c0.7,0.3 1.4,0.5 2.1,0.7c0.1,-0.4 0.2,-0.7 0.4,-1c0,0 -0.9,-0.1 -1.4,-0.1l0,-6.6l6,0c0,0.9 -0.2,1.8 -0.5,2.6c-0.3,0.9 -0.8,1.7 -1.3,2.3c-0.6,0.7 -1.2,1.2 -2,1.6c-0.1,0.1 -0.1,0.1 -0.2,0.2c-0.1,0.1 -0.2,0.3 -0.3,0.5c-0.1,0.2 -0.1,0.3 -0.1,0.6c0.3,0.1 0.4,0.1 0.7,0.2c2.1,0.5 2.6,0.4 2.7,0.3c0.5,-0.4 0.9,-0.8 1.3,-1.2c0.8,-1 1.5,-2.1 2,-3.3c0.5,-1.3 0.7,-2.6 0.7,-4c0.1,-0.3 0.1,-0.4 0.1,-0.6" style="fill-rule:nonzero;"/><path d="M42.8,19c-0.1,0 -0.1,0.1 -0.1,0.2c0,0.1 0.1,0.1 0.2,0.1c-0.1,0.1 -0.1,0.1 -0.1,0.3c0.1,0 0.2,0 0.3,-0.1c0,0.1 0,0.2 0.1,0.2c0,0 0.1,0 0.2,0c0.5,0.7 0.8,1.6 0.9,2.4c-0.2,-0.1 -0.3,-0.1 -0.4,-0.1c0,0.1 0.1,0.2 0.1,0.3l-1.5,0c0,-0.1 0,-0.2 -0.1,-0.2c-0.1,0 -0.1,0 -0.2,0.1c0,-0.1 0,-0.2 -0.1,-0.3c0,0.1 -0.1,0.2 -0.1,0.3c-0.1,-0.1 -0.1,-0.1 -0.2,-0.1c-0.1,0 -0.1,0.1 -0.1,0.2l-1.3,0c0.1,-0.1 0.1,-0.1 0.1,-0.3c-0.1,0 -0.2,0 -0.3,0.1l0,-2.1c0.1,0 0.2,0 0.2,-0.1c0,-0.1 0,-0.1 -0.1,-0.2c0.1,0 0.2,0 0.3,-0.1c-0.1,-0.1 -0.2,-0.1 -0.3,-0.1c0.1,-0.1 0.1,-0.1 0.1,-0.2c0,-0.1 -0.1,-0.1 -0.2,-0.1l0,-1.7c0.1,0 0.1,0.1 0.2,0.1c0,-0.1 0,-0.2 -0.1,-0.2c0.4,0.1 0.8,0.3 1.2,0.6c0.5,0.2 0.9,0.5 1.3,1m1.7,3.1c0.1,0.1 0.1,0.2 -0.1,0.2c-0.1,-1.1 -0.5,-2.1 -1.1,-3c0.1,0 0.2,-0.1 0.3,-0.3c-0.2,0 -0.3,0.1 -0.4,0.2c0,-0.1 -0.1,-0.1 -0.1,-0.2c-0.4,-0.5 -0.8,-0.9 -1.3,-1.2c-0.5,-0.3 -0.9,-0.5 -1.4,-0.7c0,-0.1 0.2,-0.1 0.2,0c0,-0.2 -0.1,-0.3 -0.2,-0.2c-0.1,0 -0.1,0.1 -0.1,0.1c-0.1,-0.1 -0.1,-0.1 -0.3,-0.1c0,0.1 0,0.2 0.1,0.3c-0.1,0 -0.1,0 -0.2,0.1c0,0.1 0,0.3 0.2,0.3c-0.1,-0.1 -0.1,-0.2 0.1,-0.2l0,2.3c-0.1,0 -0.3,0 -0.4,0.1c0.1,0.1 0.3,0.1 0.4,0.1l0,2.5c-0.1,0 -0.2,-0.1 -0.1,-0.2c-0.2,0 -0.3,0.2 -0.2,0.3c0,0.1 0.1,0.1 0.2,0.1c-0.1,0.1 -0.1,0.2 -0.1,0.3c0.1,0 0.2,0 0.3,-0.1c0,0.1 0,0.2 0.1,0.2c0.1,0 0.3,0 0.3,-0.2c-0.1,0.1 -0.2,0.1 -0.2,-0.1l1.5,0c0,0.1 0,0.3 0.1,0.4c0.1,-0.1 0.1,-0.3 0.1,-0.4l2,0c0,0.1 -0.1,0.2 -0.2,0.1c0,0.2 0.2,0.3 0.3,0.2c0.1,0 0.1,-0.1 0.1,-0.2c0.1,0.1 0.2,0.1 0.3,0.1c0,-0.1 0,-0.2 -0.1,-0.3c0.1,0 0.2,0 0.2,-0.1c-0.1,-0.3 -0.1,-0.4 -0.3,-0.4" style="fill-rule:nonzero;"/><path d="M43.4,21.4c0.1,0 0.1,-0.1 0.2,-0.2c-0.1,0 -0.1,0 -0.2,0c0.1,0 0.1,0 0.1,-0.1c-0.1,-0.1 -0.1,-0.1 -0.2,0c-0.1,0.1 -0.5,0 -0.5,-0.4c0,0.1 0.1,0.1 0.2,0.1l0.3,0c0.1,0 0.2,-0.1 0.2,-0.2c0,-0.2 -0.2,-0.3 -0.4,-0.5c-0.1,-0.1 -0.1,-0.1 -0.2,-0.2c-0.1,-0.1 0,-0.3 -0.2,-0.5c0,-0.1 0,-0.1 -0.1,-0.2c-0.1,0.2 -0.1,0.5 0.1,0.8c0.2,0.2 0.6,0.4 0.6,0.6c0,0 0,0.1 -0.1,0.1l-0.1,0l-0.1,0l-0.1,-0.1c-0.2,-0.2 -0.3,-0.4 -0.4,-0.5c-0.2,-0.3 -0.1,-0.5 -0.1,-0.7c0.1,-0.2 -0.1,-0.6 -0.2,-0.7c0,0 0,-0.1 0,-0.2l-0.1,0c0,-0.1 -0.1,-0.1 -0.1,-0.1c-0.1,0 -0.1,-0.1 -0.1,-0.1l-0.1,0.1l-0.1,0c-0.1,0 -0.1,0.1 -0.1,0.1c-0.1,0 -0.1,0 -0.1,0.1c0,0 0,0.1 0.1,0.1l0.1,0.1l0,-0.1c0,0 0.1,0 0.2,0l0,0.1c-0.1,0 -0.1,0 -0.2,0l0,0.1c0,0 0.1,0.1 0.2,0c0.1,0 0.3,0 0.3,0c0,0.2 -0.2,0.2 -0.3,0.5c-0.1,0 -0.1,-0.1 -0.1,-0.1c0,-0.1 -0.1,-0.1 -0.2,-0.2c0,-0.1 -0.1,-0.1 -0.2,-0.2c-0.1,0 -0.1,-0.1 -0.1,-0.2c0,-0.1 0,-0.1 0,-0.2l0,-0.1l-0.1,-0.1l0,0.2c0,-0.1 0,-0.1 -0.1,-0.1c0,-0.1 -0.1,-0.1 -0.1,0l0.1,0l0,0.1c0,0.1 0,0.1 0.1,0.1l-0.1,0l0,0.1l0,-0.1l0.1,0c-0.1,0.1 0,0.1 0,0.1c0,0.1 -0.2,0 -0.1,-0.1c-0.1,0.1 0.1,0.2 0.2,0.2l0,0.1c0,0 0,0.1 0.1,0.1c0,0 0,0.1 0.1,0.1c0.1,0.1 0.2,0.4 0.4,0.5c-0.1,0.1 -0.2,0.2 -0.3,0.3c-0.1,0.1 -0.2,0.1 -0.2,0.1l-0.1,-0.1l-0.1,0l-0.1,0l0.1,0c0,0 0,0.1 0.2,0.1l-0.1,0c-0.1,0 -0.1,-0.1 -0.1,0c-0.1,0 -0.1,0.1 0,0.2l0,-0.1c0,0.1 0.1,0.1 0.2,0c0,0.1 -0.1,0.1 0,0.2c0,0.1 0.1,0.1 0.1,0.1c0,0 -0.1,0 -0.1,-0.1l0,-0.1c0,0 0.1,0.1 0.1,0c0,0 0,-0.1 0.1,-0.1c0.1,0 0.2,-0.1 0.2,0c0,0 0,-0.1 0.1,-0.1c0.1,0 0.1,0 0.2,0c0,0 0,-0.1 0.1,-0.2c0,0.4 0.5,0.4 0.6,0.6c-0.2,-0.1 -0.3,-0.1 -0.4,-0.1c-0.1,0 -0.3,0.1 -0.4,0.3c0,0.1 0.1,0.3 0.2,0.4c-0.1,0 -0.2,0 -0.3,0c-0.1,0 -0.1,-0.2 -0.3,-0.1c-0.1,0 -0.1,0.1 -0.1,0.1l0.2,0c0,0.1 -0.2,0 -0.1,0.1c0,0 0,0.1 0.1,0.1l0,-0.1c0,0.1 0.1,0.1 0.1,0.1l-0.1,0c0,0 0.1,0.1 0.1,0l0.1,0c0,-0.1 0,-0.1 0.1,0l0.1,-0.1c0,0 0.1,0 0.2,0c0.1,-0.1 0,-0.1 0,-0.1c-0.3,0.2 -0.3,0.3 -0.3,0.2c0,-0.2 0.2,-0.3 0.4,-0.3c0,0.1 0.2,0.4 0.5,0.5c0.2,0.1 0.2,-0.1 0.3,-0.1l0,0.3c0,0 -0.1,0 -0.2,0l-0.1,0c-0.1,0 -0.1,0.1 -0.1,0.1c0,0 0.1,0 0.1,-0.1c0,0.1 0.1,0.1 0.1,0l-0.1,0.1c0,0 0,0.1 0.1,0.1l0,-0.1c0,0 0,-0.1 0.1,-0.1l0,0.1c0,0 0.1,0.1 0.1,0l-0.1,0c0,-0.1 -0.1,-0.1 -0.1,-0.2c0,-0.1 0.1,0 0.1,-0.1c0.1,0 0.1,-0.1 0.1,-0.1c0.3,0.2 0.2,0.1 0.2,0.1Z" style="fill-rule:nonzero;"/><path d="M37.8,24.8c-0.2,0 -0.3,0 -0.3,0.2c0,0.1 0.1,0.2 0.2,0.2l0.1,0l0,0.1c0,0.2 -0.1,0.5 -0.1,0.8l-0.9,-1.3c0.4,-0.2 0.8,-0.4 1,-0.4c0,0 0.1,0.1 0,0.4m-0.3,2.2l-1.4,-2c0.2,0 0.3,-0.1 0.5,-0.1l1.1,1.5c-0.1,0.2 -0.2,0.4 -0.2,0.6m-0.1,1l-2,-2.9l0.5,0l1.6,2.3c-0.1,0.2 -0.1,0.4 -0.1,0.6m-2.4,-2.9l2.2,3.2c-1.1,-0.5 -2.3,-1.6 -2.2,-3.2m3.4,-0.3l-0.1,0l0,-0.1c0,-0.4 -0.2,-0.6 -0.6,-0.6c-0.3,0 -1,0.4 -1.9,0.4c-0.4,0 -0.9,-0.2 -1.2,-0.4l-0.1,0.3c0,-0.1 -0.1,-0.2 -0.2,-0.2c-0.1,0 -0.2,0.1 -0.2,0.2c0,0.1 0.1,0.2 0.2,0.2c0.1,0 0.1,0 0.2,-0.1l-0.1,0.3l0.1,0c-0.1,1.4 0.9,3.2 2.7,3.8c0.3,-0.1 0.6,0 0.6,0.3c0,0.2 -0.1,0.3 -0.3,0.3c-0.1,0 -0.2,-0.1 -0.2,-0.1c0,-0.1 0.2,0 0.2,-0.1c0,-0.1 0,-0.2 -0.2,-0.2c-0.1,0 -0.3,0.1 -0.3,0.3c0,0.3 0.2,0.4 0.4,0.4c0.2,0 0.6,-0.1 0.6,-0.6c0.1,0 0.2,0 0.2,-0.1l0,-0.3l-0.1,0l0.1,-3.2l0.1,0c0.1,0 0.2,0 0.2,-0.2c0.1,-0.2 0,-0.3 -0.1,-0.3" style="fill-rule:nonzero;"/><path d="M36.7,18c0.1,0 0.1,-0.1 0,0c0.1,-0.1 0.1,-0.1 0,0c0.1,-0.1 0.1,-0.1 0,-0.1l-0.1,0l0.1,0.1l-0.1,0l0,0.2c0.2,-0.1 0.2,-0.1 0.1,-0.2c0,0.1 0,0 0,0m0.2,-0.3c0,0 -0.1,0 0,0c-0.1,0 -0.1,0 -0.1,-0.1l0.1,0.1m0.1,0c0,0 0.1,0 0.1,0.1c-0.1,0 0,0 -0.1,-0.1c0,0.1 0,0.1 0,0m-0.3,0.1c-0.1,0 -0.1,0 0,0c-0.1,0 -0.1,0 0,0m1.3,0.5c0.4,0 0.7,-0.1 0.7,-0.3c0,-0.5 -1.2,-0.2 -1.2,-0.5c0,0 0,-0.1 0.1,-0.1c0.6,-0.1 0.6,-0.5 1,-0.6c-0.5,-0.1 -0.6,0.3 -0.8,0.4c0.1,-0.1 0.2,-0.2 0.2,-0.3c-0.1,0.1 -0.3,0.2 -0.5,0.3l0,0.1c-0.1,0 -0.1,0.1 -0.1,0.2c0,0.5 1.2,0.1 1.2,0.5c-0.1,0.1 -0.3,0.2 -0.6,0.3c-0.3,-0.1 -0.4,-0.3 -0.9,-0.1c0,-0.1 0.2,-0.2 0.1,-0.3l0.1,-0.1l-0.1,0l0,-0.1l0,-0.1c0,0 -0.1,0 -0.1,-0.1l-0.1,0l-0.1,0l-0.1,0l-0.1,0l0,0.1l-0.1,0.1c0,0.1 -0.1,0.1 -0.1,0.1c0,0.1 -0.1,0.2 -0.1,0.3l-0.1,-0.1c-0.1,0 -0.1,-0.1 -0.1,-0.1c0,-0.1 0.1,-0.1 0.1,-0.2l0,-0.1l-0.1,-0.1l0,0.2c0,0 0,-0.1 -0.1,-0.1c0,0 0,-0.1 -0.1,0c0,0 0,0.1 0.1,0.1l-0.1,0l0,0.1l0,-0.1l0.1,0c-0.1,0.1 -0.1,0.1 0,0.1c0,0.1 -0.2,0.1 -0.1,0c-0.1,0.1 0,0.2 0.1,0.1l0,0.1c0,0 0,0.1 0.1,0.2c-0.1,0 -0.3,0.1 -0.3,0.1l-0.2,0c-0.1,0 -0.2,0.1 -0.3,0l0,-0.1l-0.1,0l-0.1,0l0.1,0c0,0 0,0.1 0.1,0.1l-0.1,0c0,0 0,-0.1 -0.1,-0.1l-0.1,0.1l0.1,0c0,0.1 0,0.1 0.1,0c0,0 -0.1,0.1 0,0.1c0,0.1 0.1,0.1 0.1,0.1l0,-0.1c0.1,0 0,-0.1 0.1,-0.1c0,0 0,0.1 0.1,0.1c0.1,0 0.1,-0.1 0.1,-0.1l0,0.2c0,0 0.1,0 0.1,-0.1l0.1,0l0,0.2c0,-0.2 0.1,-0.1 0.2,-0.2l0,0.1c0,0 0.1,0 0.1,-0.1l0.1,-0.1c0,0 0.1,0 0.1,-0.1l0,0.1c0.1,0 0.2,-0.1 0.3,-0.1c0.2,0 -0.1,-0.2 0.3,-0.2l0.1,0c0,0.1 0,0.2 0,0.2c0,0 0.1,0 0.1,0.1l-0.1,0c-0.1,0.1 -0.1,-0.2 -0.2,-0.1l-0.1,0.1l0.1,0c0,0 -0.1,0 -0.1,0.1c0,0 0,0.1 0.1,0.1c0,0 0.1,0.1 0.1,0l-0.1,0c0,0 0,0.1 0.1,0c0.1,0 0,-0.1 0.1,-0.1c0.1,0 0.2,0 0.2,0c0,0 0,-0.1 -0.1,-0.2l0,-0.1c0.1,0 0.1,0.1 0.2,0.1c0.2,0 0,0 0.1,-0.1c0.1,-0.1 0.2,0 0.2,0l0,0.1l-0.1,0l-0.1,0c0,0 -0.1,0 -0.1,0.1l0.1,0c0,0.1 0.1,0.1 0.1,0c0,0 -0.1,0.1 0,0.1c0,0 0,0.1 0.1,0.1l0,-0.1c0,0 0,-0.1 0.1,-0.1l0,0.1c0,0 0.1,0.1 0.1,0c0,-0.1 -0.1,-0.1 -0.1,-0.1c0,0 0.1,0 0.1,-0.1l0,-0.1l0.1,0c-0.1,0 0,-0.1 -0.1,-0.1l0,-0.1c0,0 -0.1,0.1 -0.1,0l-0.1,0c0.6,0.5 0.5,0.4 0.3,0.4" style="fill-rule:nonzero;"/><path d="M36,20.6m-0.3,-0.7c0,-0.1 0,-0.1 0,0c0,-0.1 0.1,-0.1 0,0c0.1,-0.1 0.1,-0.1 0,-0.2l-0.1,0l0.1,0.1l0,0.1l-0.1,0l0,0.2c0,0 -0.1,0.1 -0.1,0c0.1,-0.2 0.2,-0.2 0.2,-0.2m0.1,-0.4c0,0 -0.1,0.1 -0.1,0l0,-0.1c0,0.1 0.1,0.1 0.1,0.1m0.1,0.1c0,0 0.1,0.1 0.2,0.1l-0.1,0c-0.1,0 -0.1,-0.1 -0.1,-0.1m-0.7,0.6m3.4,-0.3c0,-0.1 -0.1,-0.2 -0.6,-0.2c-0.4,0 -1.4,0.2 -1.4,-0.1c0,-0.1 0.2,-0.1 0.4,-0.1l0.1,0c0.6,0.2 1.2,-0.1 1.5,0c-0.4,-0.3 -0.7,0 -1.1,-0.1c0.2,0 0.3,-0.1 0.3,-0.1c-0.2,0.1 -0.6,-0.1 -0.8,0.1c-0.3,0 -0.5,0 -0.5,0.2c0,0.4 1.1,0.2 1.5,0.2c0.4,0 0.4,0 0.4,0.1c0,0.1 -0.4,0.1 -0.6,0.1c-0.3,0 -1.2,-0.2 -1.8,-0.1c0,-0.1 0.1,-0.2 0.1,-0.3c0.1,0 0.1,-0.1 0.1,-0.1c0,0 -0.1,0 -0.1,-0.1l0,-0.1l0,-0.1l-0.1,-0.1l-0.1,0l-0.1,0l-0.1,0l-0.1,0c0,0 0,0.1 0,0.2c0,0 -0.1,0.1 -0.2,0.1l0,0.1c0,0.1 -0.1,0.2 -0.1,0.2l0.1,0.1c0,0.1 0,0.1 0,0.2l-0.1,0l-0.1,0c0,0 -0.1,-0.1 -0.2,-0.2c-0.1,0 -0.1,-0.1 -0.1,-0.2c0,-0.1 0,-0.1 0,-0.2l0,-0.1l-0.1,-0.1l0,0.2c0,-0.1 0,-0.1 -0.1,-0.1c0,-0.1 -0.1,-0.1 -0.1,0l0.1,0l0,0.1c0,0.1 0,0.1 0.1,0.1l-0.1,0l0,0.1l0,-0.1l0.1,0c-0.1,0.1 -0.1,0.1 0,0.1c0,0.1 -0.2,0.1 -0.2,0c-0.1,0.1 0.1,0.2 0.2,0.2c0,0 0,0.1 0.1,0.1c0,0 0.1,0.1 0.2,0.1c0.1,0 0.1,0.1 0.2,0.1c0,0.1 0.1,0.2 0,0.2c0,0 -0.2,0 -0.3,0c-0.1,0 -0.3,0.1 -0.3,0l0,-0.1l-0.1,-0.1l-0.1,0c0,0 0.1,0 0.1,0.1c0,0 0,0.1 0.1,0.1l-0.1,0c-0.1,0 -0.1,-0.1 -0.1,-0.1c-0.1,0 -0.1,0.1 -0.1,0.1l0.1,-0.1c0,0.1 0,0.1 0.2,0c0,0.1 -0.1,0.1 0,0.2c0,0.1 0.1,0.1 0.1,0.1l0,-0.1c0.1,0 0,-0.1 0.1,-0.1c0,0 0,0.1 0.1,0.1c0.1,0 0.1,-0.1 0.1,-0.1l0,0.1l0.1,-0.1l0,0.1c0,0 0.1,0 0.1,-0.1l0.1,0l0,0.2c0,-0.2 0.1,-0.1 0.2,-0.2l-0.1,0.1c0.1,0 0.3,-0.2 0.4,-0.3l0.1,0c0.4,0 0.1,-0.3 0.7,-0.2c0,0 0.1,0 0.1,-0.1c0,0.1 0,0.2 0,0.3c0,0 0.1,0 0.1,0.1l-0.1,0c-0.1,0.1 -0.1,-0.2 -0.3,-0.1c-0.1,0 -0.1,0.1 -0.1,0.1l0.3,0c0,0.1 -0.2,0 -0.1,0.1c0,0 0,0.1 0.1,0.1l0,-0.1c0,0.1 0.1,0.1 0.1,0.1l-0.1,0l0,-0.1c0,0 0.1,0.1 0.1,0c0.1,0 0,-0.1 0.1,-0.1l0.3,0c0,0 0,-0.2 -0.1,-0.2l0,-0.1c0.1,0 0.2,0.1 0.3,0.1c0.2,0 0.2,0 0.3,-0.1c0.1,-0.1 0.2,0 0.2,0c0,0.1 0,0.1 0,0.2c0,0 -0.1,0 -0.2,0l-0.1,0l-0.1,0.1l0.1,0c0,0.1 0.1,0.1 0.1,0l-0.1,0.1c0,0 0,0.1 0.1,0.1l0,-0.1c0,0 0,-0.1 0.1,-0.1l0,0.1c0,0 0.1,0.1 0.1,0c0,-0.1 -0.1,-0.1 -0.1,-0.1c0,0 0.1,0 0.1,-0.1l0,-0.1l0.1,0c-0.1,0 -0.1,-0.1 -0.1,-0.1l0,-0.1c0,0 -0.1,0.1 -0.1,0c0,0 0,-0.1 -0.1,0c-0.1,0 -0.2,0 -0.5,0c1,0.4 1.4,0.3 1.4,0.1" style="fill-rule:nonzero;"/><path d="M35.2,21.8c0,-0.1 0,-0.1 0,0c0,-0.1 0.1,-0.1 0,0c0.1,-0.1 0.1,-0.1 0,-0.1l-0.1,0l0.1,0.1l-0.1,0l0,0.2c0,0 -0.1,0.1 -0.1,0l0.2,-0.2m0.1,-0.4c0,0 -0.1,0.1 -0.1,0l0,-0.1c0,0.1 0.1,0.1 0.1,0.1m0.1,0.1c0,0 0.1,0 0.2,0.1l-0.1,0c-0.1,0 -0.1,-0.1 -0.1,-0.1m3,0.3c0,-0.1 -0.1,-0.2 -0.5,-0.2c-0.4,0 -1.7,0.2 -1.7,-0.1c0,-0.1 0.4,-0.1 0.7,-0.1l0.1,0.1c0.5,0.1 1.1,-0.2 1.4,-0.1c-0.3,-0.3 -0.7,0 -1.1,-0.1c0.2,0 0.5,0 0.5,-0.1c-0.2,0.1 -0.7,-0.1 -0.9,0.1c-0.4,0 -0.9,-0.1 -0.9,0.2c0,0.4 1.4,0.2 1.8,0.2c0.3,0 0.4,0 0.4,0.1c0,0.1 -0.3,0.1 -0.5,0.1c-0.3,0 -1.6,-0.2 -2.2,0c0,-0.1 0.2,-0.2 0.1,-0.3l0.1,-0.1l-0.1,0l0,-0.1l0,-0.1l-0.1,-0.1l-0.1,0l-0.1,0l-0.1,0l-0.1,0l0,0.1c-0.1,0 -0.1,0.1 -0.1,0.1l0,0.1c0,0.1 -0.1,0.2 -0.1,0.2l0,0.1l-0.1,0l-0.1,0c-0.1,0 -0.1,-0.1 -0.2,-0.2c-0.1,0 -0.1,-0.1 -0.1,-0.2c0,-0.1 0,-0.1 0,-0.2l0,-0.1l-0.1,-0.1l0,0.2c0,-0.1 0,-0.1 -0.1,-0.1c0,-0.1 -0.1,-0.1 -0.1,0l0,0.1c0,0.1 0,0.1 0.1,0.1l-0.1,0l0,0.1l0,-0.1l0.1,0c-0.1,0.1 -0.1,0.1 0,0.1c0,0.1 -0.2,0.1 -0.2,0c-0.1,0.1 0.1,0.2 0.2,0.2c0,0 0,0.1 0.1,0.1c0,0 0.1,0.2 0.3,0.2l0.1,0c0,0.1 0.1,0.2 0,0.2l-0.3,0c-0.1,0 -0.3,0.1 -0.3,0l0,-0.1l-0.1,-0.1l-0.1,0l0.1,0c0,0 0,0.1 0.1,0.1l-0.1,0l-0.1,-0.1c-0.1,0 -0.1,0.1 -0.1,0.1l0.1,-0.1c0,0.1 0,0.1 0.2,0c0,0.1 -0.1,0.1 -0.1,0.1c0,0.1 0.1,0.1 0.1,0.1l0,-0.1c0.1,0 0,-0.1 0.1,-0.1c0,0 0,0.1 0.1,0.1c0.1,0 0.1,-0.1 0.1,-0.1l0,0.1l0.1,0l0,0.1c0,0 0.1,0 0.1,-0.1l0.1,0l0,0.2c0,-0.2 0.2,-0.1 0.3,-0.2l-0.1,0.1c0,0 0.1,0 0.1,-0.1l0.2,-0.1l0,-0.1l0.1,0c0.1,0 0.1,-0.1 0.2,-0.1c0.7,0.1 0.3,-0.3 1.1,-0.2l0.1,0c0,0.1 0,0.2 0,0.2c0,0 0.1,0 0.1,0.1l-0.1,0c-0.1,0.1 -0.1,-0.2 -0.3,-0.1c-0.1,0 -0.1,0.1 -0.1,0.1l0.2,0c0,0 -0.2,0 -0.1,0.1c0,0 0,0.1 0.1,0.1c0,0 0.1,0.1 0.1,0l-0.1,0c0,0 0.1,0.1 0.1,0c0.1,0 0,-0.1 0.1,-0.1l0.3,0c0,0 0,-0.2 -0.1,-0.2l0,-0.1c0.1,0 0.2,0.1 0.3,0.1c0.2,0 0.2,0 0.3,-0.1c0.1,-0.1 0.2,0 0.2,0l0,0.1c0,0 -0.1,0 -0.2,0l-0.1,0c-0.1,0 -0.1,0 -0.1,0.1l0.1,0c0,0.1 0.1,0.1 0.1,0c0,0 -0.1,0.1 0,0.1c0,0 0,0.1 0.1,0.1l0,-0.1c0,0 0,-0.1 0.1,-0.1l0,0.1c0,0 0.1,0.1 0.1,0l-0.1,0c0,-0.1 -0.1,-0.1 -0.1,-0.1c0,0 0.1,0 0.1,-0.1l0,-0.1l0.1,0c-0.1,0 0,-0.1 -0.1,-0.1l0,-0.1c0,0 -0.1,0.1 -0.1,0c0,0 0,-0.1 -0.1,0c-0.1,0 -0.2,0 -0.4,0c0.9,0.6 1.3,0.6 1.3,0.4" style="fill-rule:nonzero;"/><path d="M41.5,25.1m-0.6,-1m0.1,0.4c0,-0.1 0,-0.1 0,0c0.1,-0.1 0.1,-0.1 0,0c0.1,-0.1 0.1,-0.1 0,-0.1l0.1,0.1l-0.1,0l0,0.2c0,0 0,0.1 -0.1,0l0.1,-0.2m0.2,-0.4c0,0 -0.1,0.1 -0.1,0l0,-0.1c0,0.1 0,0.1 0.1,0.1m0.1,0.1c0,0 0.1,0.1 0.2,0.1l-0.1,0c-0.1,0 -0.2,-0.1 -0.1,-0.1m2.9,0.7c0,0 0.1,-0.1 0,-0.1c0,0 -0.1,0.1 -0.1,0c0,0 0,-0.1 -0.1,0c-0.1,0 -0.2,0 -0.5,0c0.2,0 0.7,-0.1 0.7,-0.2c0,-0.1 -0.1,-0.2 -0.5,-0.2c-0.4,0 -1.7,0.1 -1.7,-0.1c0,-0.1 0.4,-0.1 0.7,-0.1l0.1,0.1c0.5,0.1 1.1,-0.2 1.4,-0.2c-0.4,-0.1 -0.7,0.1 -1.1,0c0.2,0 0.5,0 0.5,-0.1c-0.2,0.1 -0.7,-0.1 -0.9,0.1c-0.4,0 -0.9,0 -0.9,0.2c0,0.4 1.4,0.2 1.8,0.2c0.3,0 0.4,0 0.4,0.1c0,0.1 -0.3,0.1 -0.5,0.1c-0.3,0 -1.6,-0.2 -2.2,0c0,-0.1 0.2,-0.2 0.1,-0.3l0.1,-0.1l-0.1,0l0,-0.1l0,-0.1l-0.1,-0.1l-0.1,0l-0.1,0l-0.1,0l-0.1,0l0,0.1c-0.1,0 -0.1,0.1 -0.1,0.1l0,0.1c0,0.1 -0.1,0.2 -0.1,0.2l0.1,0.1l0,0.1l-0.1,0l-0.1,0l-0.1,0c-0.1,0 -0.1,-0.1 -0.2,-0.2c-0.1,0 -0.1,-0.1 -0.1,-0.2c0,-0.1 0,-0.1 0,-0.2l0,-0.1l-0.1,-0.1l0,0.2c0,0 0,-0.1 -0.1,-0.1c0,-0.1 -0.1,-0.1 -0.1,0l0.1,0l0,0.1c0,0.1 0,0.1 0.1,0.1l-0.1,0l0,0.1l0,-0.1l0.1,0c-0.1,0.1 -0.1,0.1 0,0.1c0,0.1 -0.2,0.1 -0.2,0c-0.1,0.1 0.1,0.2 0.2,0.2c0,0 0,0.1 0.1,0.1c0,0 0.1,0.2 0.3,0.3c0,0 0.1,0 0.1,-0.1c0,0 0,0.1 0.1,0.1c0,0.1 0.1,0.2 0.1,0.2l-0.2,0c-0.1,0 -0.3,0.1 -0.3,0l0,-0.1l-0.1,-0.1l-0.1,0l0.1,0c0,0 0,0.1 0.1,0.1l-0.1,0l-0.1,-0.1c-0.1,0 -0.1,0.1 -0.1,0.1c0,0 0,-0.1 0.1,-0.1c0,0.1 0,0.1 0.2,0c0,0.1 -0.1,0.1 0,0.1c0,0.1 0.1,0.1 0.1,0.1l0,-0.1c0.1,0 0,-0.1 0.1,-0.1c0,0 0,0.1 0.1,0.1c0.1,0 0.1,-0.1 0.1,-0.1l0,0.1l0.1,-0.1l0,0.1c0,0 0.1,0 0.1,-0.1l0.1,0l0,0.2c0,-0.2 0.1,-0.1 0.2,-0.2l-0.1,0.1l0.2,-0.1l0.1,0c0.1,0 0.1,-0.1 0.1,-0.1c0.7,0.1 0.3,-0.3 1.1,-0.2c0,0 0.1,0 0.1,-0.1c0,0.1 0,0.2 0,0.2c0,0 0.1,0 0.1,0.1l-0.1,0c-0.1,0.1 -0.1,-0.2 -0.3,-0.1c-0.1,0 -0.1,0.1 -0.1,0.1l0.1,0c0,0 -0.2,0 -0.1,0.1c0,0 0,0.1 0.1,0.1l0,-0.1c0,0 0.1,0.1 0.1,0l-0.1,0c0,0 0.1,0.1 0.1,0c0.1,0 0,-0.1 0.1,-0.1l0.3,0c0,0 0,-0.2 -0.1,-0.2l0,-0.1c0.1,0 0.2,0.1 0.3,0.1c0.2,0 0.2,0 0.3,-0.1c0.1,-0.1 0.2,0 0.2,0c0,0.1 0,0.1 0,0.2c0,0 -0.1,0 -0.2,0l-0.1,0l-0.1,0.1l0.1,0c0,0.1 0.1,0.1 0.1,0l-0.1,0.1c0,0 0,0.1 0.1,0.1l0,-0.1c0,0 0,-0.1 0.1,-0.1l0,0.1c0,0 0.1,0.1 0.1,0l0,-0.1c0,0 0.1,0 0.1,-0.1l0,-0.1c0.5,0.5 0.5,0.5 0.5,0.3c0,0.1 0,0.1 0,0" style="fill-rule:nonzero;"/><path d="M41.2,26.1l-0.1,-0.1c0.1,0 0.2,0 0.1,0.1c0.1,0 0.1,0 0,0m0,0.1c0,0 0,-0.1 0,0c-0.1,-0.1 -0.1,-0.1 0,0l-0.1,0l0,0.2c0,0 0,0.1 -0.1,0l0,-0.1l0,-0.1l-0.1,0l0.3,0c0,-0.1 0,-0.1 0,0c0,-0.1 0,0 0,0m-0.1,-0.3c0,0.1 -0.1,0.1 0,0c-0.1,0 -0.1,0 -0.1,-0.1c0,0.1 0.1,0.1 0.1,0.1m1.3,0.1c0.6,0.2 1.2,-0.2 1.5,-0.1c-0.4,-0.1 -0.6,0.1 -1,0c0.2,0 0.5,0 0.5,-0.1c-0.2,0.1 -0.7,-0.1 -0.9,0.1c-0.1,0 -0.1,0 -0.1,0.1c-0.3,-0.1 -0.5,-0.1 -0.5,0.1c0,0.4 1,0.2 1.4,0.2c0.3,0 0.3,0 0.3,0.1c0,0.1 -0.4,0.1 -0.6,0.1c-0.3,0 -1.1,-0.1 -1.6,0c0,-0.1 0.1,-0.2 0.1,-0.3l0.1,-0.1l-0.1,0l0,-0.1l0,-0.1l-0.1,-0.1l-0.1,0l-0.1,0l-0.1,0l-0.1,0l0,0.1l-0.1,0.1c0,0.1 -0.1,0.2 -0.1,0.2l0,0.1c-0.1,0 -0.1,0 -0.2,-0.1c-0.1,0 -0.1,-0.1 -0.1,-0.2c0,-0.1 0,-0.1 0,-0.2l0,-0.1l-0.1,-0.1l0,0.2c0,0 0,-0.1 -0.1,-0.1c0,-0.1 -0.1,-0.1 -0.1,0c0,0.1 0,0.1 0.1,0.1l-0.1,0l0,0.1l0,-0.1c-0.1,0.1 -0.1,0.1 0,0.1c0,0.1 -0.2,0.1 -0.1,0c-0.1,0.1 0.1,0.2 0.2,0.2c0,0 0,0.1 0.1,0.1l0.2,0l0,0.1l0.1,0c0,0.1 0,0.2 0,0.2l-0.2,0c-0.1,0 -0.3,0.1 -0.3,0l0,-0.1l-0.1,0l-0.1,0l0.1,0c0,0 0,0.1 0.1,0.1l-0.1,0l-0.1,-0.1l-0.1,0.1l0.1,-0.1c0,0.1 0,0.1 0.2,0c0,0 -0.1,0.1 0,0.1c0,0.1 0.1,0.1 0.1,0.1l0,-0.1c0.1,0 0,-0.1 0.1,-0.1c0,0 0,0.1 0.1,0.1c0.1,0 0.1,-0.1 0.1,-0.1l0,0.1l0,-0.1l0,0.1c0,0 0.1,0 0.1,-0.1l0.1,0l0,0.2c0,-0.2 0.2,-0.1 0.3,-0.2l0,0.1c0.1,0.1 0.2,-0.1 0.3,-0.2l0,0.1c0.1,0 0.1,-0.1 0.1,-0.1c0.3,0 0.1,-0.3 0.6,-0.2c0,0 0.1,0 0.1,-0.1c0,0.1 0,0.2 0,0.2c0,0 0.1,0 0.1,0.1l-0.1,0c-0.1,0.1 -0.1,-0.2 -0.2,-0.1l-0.1,0.1l0.2,0c0,0 -0.2,0 -0.1,0.1c0,0 0,0.1 0.1,0.1c0,0 0.1,0.1 0.1,0l-0.1,0c0,0 0,0.1 0.1,0c0.1,0 0,-0.1 0.1,-0.1l0.3,0c0,0 0,-0.1 -0.1,-0.2l0,-0.1c0.1,0 0.1,0.1 0.2,0.1c0.2,0 0.3,0 0.3,-0.1c0.1,-0.1 0.2,0 0.2,0l0,0.1l-0.1,0l-0.1,0c0.1,0.7 0,0.8 0,0.8l0.1,0c0,0.1 0.1,0.1 0.1,0l-0.1,0.1l0,0.1l0,-0.1c0,0 0,-0.1 0.1,-0.1c0,0 -0.1,0.1 0,0.1c0,0 0,0.1 0.1,0c0.1,-0.1 0,-0.1 0,-0.1c0,0 0.1,0 0.1,-0.1l0,-0.1l0.1,0c-0.1,0 0,-0.1 0,-0.1c0,0 0.1,0 0.1,-0.1c0,0 -0.1,0.1 -0.1,0l-0.1,0c-0.1,0 -0.3,0 -0.5,0c0.2,0 0.7,0 0.7,-0.2c0,-0.1 0,-0.2 -0.4,-0.2c-0.4,0 -1.3,0.1 -1.3,-0.1c0.1,-0.2 0.3,-0.1 0.5,-0.1" style="fill-rule:nonzero;"/><path d="M40.8,28.1c0,-0.1 0,-0.1 0,0c0.1,-0.1 0.1,-0.1 0,0c0.1,-0.1 0.1,-0.1 0,-0.1l0.1,0.1l-0.1,0l0,0.2c0.1,-0.2 0.1,-0.1 0,-0.2m0.1,-0.3c-0.1,0 -0.1,0 -0.1,-0.1l0.1,0.1m0.1,0c0,0 0.1,0 0.1,0.1l-0.1,-0.1c0,0.1 0,0 0,0m1,0c0.6,0.2 1.2,-0.2 1.5,-0.1c-0.4,-0.1 -0.6,0.1 -1,0c0.2,0 0.5,0 0.5,-0.1c-0.2,0.1 -0.7,-0.1 -0.9,0c-0.1,0.1 -0.1,0.1 -0.1,0.2c-0.1,0 -0.3,0 -0.3,0.2c0,0.3 1.3,0.1 1.3,0.2c0,0.1 -0.3,0.2 -0.6,0.2c-0.3,0 -0.7,-0.2 -1.2,0c0,-0.1 0.2,-0.2 0.1,-0.3l0.1,-0.1l-0.1,0l0,-0.1l0,-0.1c0,0 -0.1,0 -0.1,-0.1l-0.1,0l-0.1,0l-0.1,0l-0.1,0l0,0.1l-0.1,0.1c0,0.1 -0.1,0.1 -0.1,0.1c0,0.1 0,0.2 0,0.3c-0.1,-0.1 -0.2,-0.3 -0.3,-0.3c-0.1,0 -0.1,-0.1 -0.1,-0.2c0,-0.1 0,-0.1 0,-0.2l0,-0.1l-0.1,-0.1l0,0.2c0,0 0,-0.1 -0.1,-0.1c0,0 0,-0.1 -0.1,0c0,0 0,0.1 0.1,0.1l-0.1,0l0,0.1l0,-0.1l0.1,0c-0.1,0.1 0,0.1 0,0.1c0,0.1 -0.1,0.1 -0.1,0c-0.1,0.1 0.1,0.2 0.2,0.2l0,0.1c0,0 0,0.2 0.1,0.2c0,0.1 0.1,0.1 0.2,0.1c0,0.1 0.1,0.1 0.1,0.1l-0.2,0c0,0 -0.1,0 -0.2,0.1l-0.1,0l0,-0.1l-0.1,0l-0.1,0l0.1,0c0,0 0,0.1 0.1,0.1l-0.1,0c0,0 0,-0.1 -0.1,-0.1l-0.1,0.1l0.1,-0.1c0,0.1 0,0.1 0.1,0c0,0 -0.1,0.1 0,0.1c0,0.1 0.1,0.1 0.1,0.1l0,-0.1c0,0 0,-0.1 0.1,-0.1c0,0 0,0.1 0.1,0.1c0.1,0 0.1,-0.1 0.1,-0.1l0,0.2c0,0 0.1,0 0.1,-0.1l0.1,0l0,0.2c0,-0.2 0.1,-0.1 0.2,-0.2l0,0.1c0,0 0.2,0 0.2,-0.1c0,0 0.1,-0.1 0.1,-0.3c0.1,0 0.2,-0.1 0.3,-0.1c0,0 0,0.1 0,0.2c0,0.1 0.1,0.2 0.1,0.2l-0.1,0c-0.1,0.1 -0.1,-0.2 -0.2,-0.1l-0.1,0.1l0.1,0c0,0 -0.1,0 -0.1,0.1c0,0 0,0.1 0.1,0.1c0,0 0.1,0.1 0.1,0l-0.1,0c0,0 0,0.1 0.1,0c0.1,0 0,-0.1 0.1,-0.1l0.1,0c0,0 0,-0.1 -0.1,-0.2c0,0 0.1,-0.3 -0.1,-0.4c0.1,0 0.4,0.1 0.4,0c0.1,0 0.2,0.1 0.2,0.1c-0.1,0 -0.1,0.1 -0.1,0.1l-0.1,-0.1l-0.1,0l-0.1,0l0.1,0l-0.1,0l0,0.1l0.2,0c0,0 -0.1,0 -0.1,0.1c0,0 0,0.1 0.1,0.1l0,-0.1c0.1,0 0,-0.1 0.1,-0.1c0,0 0.1,0.1 0.1,0l0,-0.1l0.1,0c-0.1,0 0,-0.1 0,-0.1l0.1,0l-0.1,-0.1c0.1,0 0.1,-0.1 0.1,-0.1c-0.1,-0.1 -0.2,-0.1 -0.2,-0.2l0.1,0c0.4,0 0.7,-0.1 0.7,-0.3c0,-0.3 -1.3,0 -1.3,-0.2c0.5,0.7 0.6,0.7 0.7,0.7" style="fill-rule:nonzero;"/><path d="M21.1,5.3c0,-0.2 -0.1,-0.3 -0.3,-0.3c-0.2,0 -0.3,0.1 -0.3,0.3c0,0.2 0.1,0.3 0.3,0.3c0.1,0 0.3,-0.1 0.3,-0.3" style="fill-rule:nonzero;"/><path d="M21,4.5c0,-0.2 -0.1,-0.3 -0.3,-0.3c-0.2,0 -0.3,0.1 -0.3,0.3c0,0.2 0.1,0.3 0.3,0.3c0.1,0 0.3,-0.2 0.3,-0.3" style="fill-rule:nonzero;"/><path d="M21.1,4.1c0.2,0 0.3,-0.1 0.3,-0.3c0,-0.2 -0.1,-0.3 -0.3,-0.3c-0.2,0 -0.3,0.1 -0.3,0.3c0,0.2 0.2,0.3 0.3,0.3" style="fill-rule:nonzero;"/><path d="M22,4c0.2,0 0.3,-0.1 0.3,-0.3c0,-0.2 -0.1,-0.3 -0.3,-0.3c-0.2,0 -0.3,0.1 -0.3,0.3c0,0.2 0.1,0.3 0.3,0.3" style="fill-rule:nonzero;"/><path d="M25.5,3.5c0.1,0.1 0.3,0.1 0.4,0c0.1,-0.1 0.1,-0.3 0,-0.4c-0.1,-0.1 -0.3,-0.1 -0.4,0c-0.1,0 -0.1,0.2 0,0.4" style="fill-rule:nonzero;"/><path d="M25.5,2.8c0.1,-0.1 0.1,-0.3 0,-0.4c-0.1,-0.1 -0.3,-0.1 -0.4,0c-0.1,0.1 -0.1,0.3 0,0.4c0,0.1 0.2,0.1 0.4,0" style="fill-rule:nonzero;"/><path d="M24.6,2.7c0.1,-0.1 0.1,-0.3 0,-0.4c-0.1,-0.1 -0.3,-0.1 -0.4,0c-0.1,0.1 -0.1,0.3 0,0.4c0.1,0.1 0.3,0.1 0.4,0" style="fill-rule:nonzero;"/><path d="M23.9,3.2c0.1,-0.1 0.1,-0.3 0,-0.4c-0.1,-0.1 -0.3,-0.1 -0.4,0c-0.1,0.1 -0.1,0.3 0,0.4c0.1,0.1 0.3,0.1 0.4,0" style="fill-rule:nonzero;"/><path d="M21.9,2.8l0.3,0.5l0.3,-0.4c0,0.2 0,0.5 0,0.7c0.1,0.2 0.2,0.4 0.5,0.4c0.3,0 0.4,-0.2 0.4,-0.4c0,-0.2 -0.1,-0.3 -0.2,-0.4c-0.2,-0.1 -0.4,-0.2 -0.5,-0.3l0,-0.1l0.5,0l-0.2,-0.6l-0.4,0.3l0,-0.6l-0.5,0.2l0.4,0.4l-0.6,0.3Z" style="fill-rule:nonzero;"/><path d="M25.5,3.7c0.1,0.2 0.2,0.3 0.2,0.4c-0.1,0 -0.2,-0.1 -0.3,-0.3l0.1,0.7c0.1,-0.1 0.2,-0.2 0.3,-0.3c0,0.5 -0.2,0.7 -0.4,0.7c-0.2,0 -0.3,-0.1 -0.4,-0.2c0,-0.2 0.1,-0.3 0.3,-0.2c0,-0.4 -0.3,-0.4 -0.5,-0.2c0.2,-0.3 0.1,-0.6 -0.2,-0.8c-0.2,0.4 -0.1,0.7 0.2,1c-0.3,-0.1 -0.5,0.1 -0.3,0.4c0.1,-0.3 0.3,-0.2 0.4,0c0,0.2 -0.1,0.4 -0.4,0.5c-0.4,0.1 -0.6,-0.2 -0.7,-0.4c0.1,-0.1 0.3,0 0.6,0.1l-0.4,-0.7c-0.1,0.3 -0.3,0.4 -0.4,0.4c0,-0.2 0.1,-0.6 0.1,-0.6l-0.9,0.3c0,0 0.4,0.2 0.5,0.4c-0.1,0.1 -0.3,0.1 -0.5,0l0.3,0.7c0.1,-0.3 0.2,-0.5 0.3,-0.5c0.1,0.3 0.2,0.6 -0.2,0.8c-0.3,0.2 -0.6,0.1 -0.7,-0.1c-0.1,-0.2 0,-0.4 0.2,-0.3c0,-0.4 -0.4,-0.4 -0.5,-0.1c0,-0.4 -0.1,-0.7 -0.6,-0.8c-0.1,0.4 0,0.7 0.5,0.8c-0.1,0 -0.4,0.3 -0.1,0.6c0,-0.3 0.2,-0.3 0.3,-0.1c0.1,0.1 0.1,0.3 -0.1,0.4c-0.1,0.1 -0.4,0.1 -0.8,-0.2c0.1,0 0.2,0 0.4,0l-0.5,-0.6c0,0.2 0,0.3 0,0.4c-0.1,-0.1 -0.1,-0.2 -0.2,-0.4l-0.4,0.3c0.5,0.2 0.9,0.5 1.3,1.2c0.5,-0.3 1.4,-0.8 2,-1c0.5,-0.2 1.5,-0.5 2,-0.7c-0.1,-0.8 -0.1,-1.3 0,-1.7l-0.5,0.1Z" style="fill-rule:nonzero;"/><path d="M26.5,7.9c-0.4,0.3 -1,0 -1.3,-0.4c0.6,-0.2 1.3,-0.5 1.8,-0.8c-0.4,0.6 -0.1,0.9 -0.5,1.2m-0.1,4.5c-0.6,0.2 -1,-0.3 -1.1,-0.6c-0.1,-0.3 -0.2,-0.6 -0.1,-0.7c0.2,-0.2 0.3,-0.4 0.2,-0.7c-0.2,-0.3 -0.5,-0.2 -0.9,-0.1c0.2,-0.3 0.2,-0.6 -0.1,-0.5c-0.3,0 -0.3,0.5 -0.5,0.5c-0.2,-0.1 -0.1,-0.3 -0.1,-0.5c0,-0.2 0.1,-0.3 0.3,-0.4l1.6,-0.6c0.2,-0.1 0.4,-0.1 0.5,0c0.1,0.1 0.4,0.2 0.3,0.4c-0.1,0.2 -0.4,-0.2 -0.7,0c-0.2,0.2 0,0.3 0.3,0.4c-0.4,0.2 -0.7,0.3 -0.6,0.7c0.1,0.3 0.3,0.4 0.6,0.4c0.2,0 0.3,0.3 0.5,0.6c0.4,0.3 0.4,0.8 -0.2,1.1m-3.1,-3.3c-0.4,0 -0.4,-0.4 -1.2,-0.6c0.5,-0.1 1.2,-0.4 1.8,-0.6c0.2,0.5 0,1.2 -0.6,1.2m9.1,14.5c0.1,-0.3 -0.5,-0.7 -0.6,-1.2c-0.1,-0.5 0,-0.9 -0.6,-1.6c-0.5,-0.6 -2.4,-2.6 -3,-3.3c0.1,0 0.5,-0.1 0.8,0.2c0.2,0.2 0.6,0.6 1,0.9c0.5,-1.3 1.1,-2.2 2,-3.2c0.1,-0.1 0.2,-0.3 0.3,-0.4c-0.3,0.1 -0.8,0.2 -1.1,0.4c0,-0.5 0,-1 -0.4,-1.3c0.1,-0.8 0,-1.7 -1.7,-2.8c0.9,0.2 1.4,1 2.1,0.4c-0.6,0 -0.6,-1.3 -2.8,-2.4c0.8,0 1.5,1.3 2.5,0.6c-0.9,-0.1 -1.2,-1.7 -2.9,-2.2c0.6,0.1 1.2,0.3 1.6,-0.3c-0.6,0.1 -0.9,-0.4 -1.5,-0.4c0.2,-0.7 0.2,-1.1 -0.1,-1.7c-0.4,0 -0.9,0.2 -1.2,0.4c0,-0.4 -0.5,-0.4 -0.8,-0.4c0,0.2 0.1,0.4 -0.1,0.4c-0.3,0.1 -1.3,0.3 -2,0.6c-0.8,0.3 -1.6,0.8 -1.9,1c-0.2,0.1 -0.3,-0.1 -0.4,-0.3c-0.3,0.2 -0.5,0.5 -0.3,0.8c-0.4,0 -0.9,0.1 -1.3,0.5c0,0.5 0.4,1 1,1.2c-1,1 -0.1,1.9 -1,2.8c1.3,0 1,-1.7 1.7,-1.9c-0.1,1.2 -0.7,1.4 -0.7,2.8c0,0.7 0.4,1.5 0,1.9c1,-0.3 0.8,-2.6 1.4,-3.3c0.1,0.4 0,0.8 -0.1,1.2c-0.4,1.1 0,2.6 -0.5,3c1.1,-0.1 1.2,-1.8 2.1,-2.5c-0.8,1.5 -1.5,4.8 -2.7,6.5c-1.8,2.5 -2.9,5.5 -4.6,5.5c-0.7,0 -1.3,-0.5 -1.3,-1.4c0,-2.8 4.8,-4.7 4.8,-7.7c0,-1.3 -1.1,-1.8 -1.8,-1.8c-0.5,0 -1,0.2 -1.5,0.6c-0.2,-0.1 -0.4,-0.1 -0.6,-0.1c-1.7,0 -1.2,3 -2.7,3c0.6,0.3 1.6,-0.3 2.2,-1.2c-0.2,2 -3.1,1.5 -2.9,3.8c0.4,-1.9 4.9,-1.6 4.9,-4.4c0,-0.3 -0.2,-0.6 -0.4,-0.8c0.3,-0.2 0.7,-0.3 1,-0.3c0.5,0 1,0.4 1,1.2c0,2.5 -4.8,4.6 -4.8,7.7c0,0.5 0.2,0.9 0.4,1.3c-0.3,0.1 -0.7,0.1 -1,-0.3c0,0.8 1.1,1.3 1.8,0.9c0.2,0.1 0.3,0.1 0.5,0.1c-0.2,0.6 -0.9,0.8 -1.3,0.7c1.2,0.9 3.2,-0.3 3.1,-1.3c0.9,-0.7 1.5,-2 2.2,-2.9c0,0.2 -0.1,0.4 -0.1,0.6c-0.7,1.2 -1.3,2.4 -1.5,4c-0.2,1.4 -0.8,2.6 -1.8,2.6c-0.2,0 -0.6,-0.3 -0.7,-0.1c-0.3,0.3 0,0.5 0,0.8c0,0.4 -0.8,0.8 -0.8,2c0,0.5 0.3,1.2 0.2,1.6c0.3,-0.2 0.7,-0.7 0.9,-1.3c0.3,1.6 -0.7,1.5 0,2.9c0.1,-0.5 0.6,-0.7 0.8,-0.5c0.3,0.2 0.2,0.3 -0.1,0.5c0.3,0.3 0.1,1.3 1.1,1.3c-0.2,-0.1 -0.2,-0.4 0.3,-0.5c0.7,-0.1 0.9,0.2 1.6,0.2c0.4,0 0.6,-0.6 0.9,-0.6c0.3,0 0.3,0.3 0.2,0.5c0.6,-0.2 0.7,-0.5 0.7,-0.8c0,-0.3 -0.3,-0.5 -0.1,-0.6c0.2,-0.1 0.8,0 0.6,0.5c0.3,-0.1 0.5,-0.3 0.5,-0.7c0,-0.4 -0.5,-0.6 -0.9,-0.6c-0.1,-0.3 -0.5,-0.4 -0.8,-0.4c-0.8,0 -0.7,0.6 -1.2,0.6c-0.9,0 -1.7,-1.1 -1.7,-3c0,-1 1.1,-1.3 1.9,-1.6c0.8,-0.3 2.1,-1.2 2.9,-2.5c0.6,-1.1 0.7,-2.2 0.6,-3.6c1.1,0.6 1.2,1.5 1.2,2.2c0,0.8 -0.4,1.2 -0.8,1.3c-0.3,0.1 -0.4,0.1 -0.4,0.3c0,0.2 0.1,0.3 0.2,0.4c0.4,0.2 0.3,0.6 0.4,1c0.1,0.4 0.5,1 1.1,1.5c0.1,-0.2 0,-0.7 0,-1.2c0.8,0.4 0.2,2.1 1.8,2.1c-0.3,-0.2 -0.2,-0.6 0,-0.7c0.2,-0.1 0.4,0.1 0.7,0.5c0.3,0.4 0.2,0.4 1,0.4c0.8,0 0.4,-0.3 0.8,-0.3c0.4,0 0.4,0.5 0.2,0.8c0.7,-0.2 0.9,-0.7 0.7,-1.3c0.6,-0.3 0.9,0.1 1,0.5c0.6,-0.6 0,-1.3 -0.5,-1.4c0,-0.2 -0.2,-0.4 -0.4,-0.5c-0.2,0 -0.5,0 -0.8,0c-0.3,0 -0.4,0.4 -0.8,0.4c-1,0 -3,-1.8 -3,-2.6c0,-0.8 1.9,-1.3 1.9,-2.5c0,-1.6 -1.6,-2.2 -2.9,-3.2c0.5,-0.5 1.9,-0.7 2.6,-0.3c0.1,-0.4 0.4,-0.3 0.5,-1.1c0.3,0.7 0,1.3 0.3,1.6c0.2,-0.3 0.8,-0.3 0.8,-1.1c0.2,0.5 -0.2,1.3 0.2,1.7c0.1,-0.4 0.3,-0.5 0.5,-0.5c0.2,0 0.3,0.1 0.3,0.4c0,0.6 -0.8,0.3 -0.8,1.1c0,0.3 0.4,0.4 0.4,0.6c0,0.2 -0.3,0.5 -0.7,0.2c0.1,0.3 0.4,0.5 0.7,0.5c0.4,0 0.7,-0.3 0.9,-0.6c0.2,0.5 0,1 -0.3,1c0.3,0.2 1.2,0 1.1,-1.1c0.5,0.1 0.7,0.4 0.4,1c0.4,-0.1 0.7,-0.3 0.7,-0.7c-0.1,-0.2 -0.5,-0.3 -0.3,-0.7" style="fill-rule:nonzero;"/><path d="M63.3,31.3c0,-0.6 0.5,-1 1,-1c0.6,0 1,0.4 1,1c0,0.6 -0.4,1 -1,1c-0.5,0 -1,-0.4 -1,-1m-0.3,0c0,0.7 0.6,1.3 1.4,1.3c0.7,0 1.3,-0.6 1.3,-1.3c0,-0.7 -0.6,-1.3 -1.3,-1.3c-0.8,0 -1.4,0.6 -1.4,1.3" style="fill-rule:nonzero;"/><path d="M58.5,33.8c-0.4,-0.1 -0.7,-0.4 -0.6,-0.6c0,-0.1 0.1,-0.2 0.2,-0.3c0.2,-0.1 0.4,-0.1 0.6,-0.1c0.3,0.1 0.6,0.3 0.6,0.6l0,0.1c0,0.2 -0.4,0.3 -0.8,0.3m-0.6,-1.2c-0.2,0.1 -0.3,0.3 -0.3,0.5c0,0.2 0,0.5 0.2,0.7c0.2,0.2 0.4,0.3 0.7,0.4c0.3,0 0.5,0 0.8,-0.1c0.2,-0.1 0.4,-0.3 0.4,-0.6c0.1,-0.5 -0.3,-0.9 -0.9,-1c-0.3,-0.2 -0.6,-0.1 -0.9,0.1" style="fill-rule:nonzero;"/><path d="M50.4,14.4c0,-0.2 0.1,-0.4 0.3,-0.5c0.2,-0.1 0.3,-0.2 0.5,-0.2c0.1,0 0.2,0 0.3,0.1c0.1,0.1 0.1,0.2 0.1,0.3c0,0.2 -0.1,0.3 -0.3,0.5c-0.3,0.2 -0.6,0.2 -0.8,0c0,0 -0.1,-0.1 -0.1,-0.2m0.1,-0.8c-0.4,0.3 -0.5,0.9 -0.3,1.2c0.3,0.3 0.8,0.4 1.2,0c0.2,-0.2 0.4,-0.4 0.4,-0.7c0,-0.2 0,-0.4 -0.1,-0.5c-0.1,-0.1 -0.3,-0.2 -0.5,-0.3c-0.2,0.1 -0.5,0.2 -0.7,0.3" style="fill-rule:nonzero;"/><path d="M56.9,31.9c-0.1,0 -0.2,-0.1 -0.3,-0.1c-0.1,-0.1 -0.2,-0.4 -0.2,-0.6c0,-0.2 0.1,-0.4 0.2,-0.6c0.1,-0.1 0.2,-0.1 0.3,-0.1c0.3,0 0.5,0.3 0.5,0.7c0,0.2 -0.1,0.4 -0.2,0.6c-0.1,0 -0.2,0.1 -0.3,0.1m-0.5,-1.6c-0.2,0.2 -0.3,0.5 -0.3,0.8c0,0.3 0.1,0.6 0.3,0.8c0.2,0.2 0.3,0.2 0.5,0.2c0.2,0 0.4,-0.1 0.6,-0.2c0.2,-0.2 0.3,-0.5 0.3,-0.8c0,-0.3 -0.1,-0.5 -0.2,-0.7c-0.2,-0.2 -0.4,-0.3 -0.6,-0.3c-0.3,0 -0.5,0.1 -0.6,0.2" style="fill-rule:nonzero;"/><path d="M50,20.7c-0.4,-0.2 -0.5,-0.5 -0.4,-0.8c0.1,-0.1 0.2,-0.2 0.3,-0.2c0.2,-0.1 0.4,0 0.6,0.1c0.2,0.1 0.4,0.3 0.4,0.4c0,0.1 0.1,0.2 0,0.3c-0.1,0.1 -0.2,0.2 -0.3,0.2c-0.1,0.2 -0.4,0.1 -0.6,0m-0.2,-1.3c-0.2,0.1 -0.4,0.2 -0.5,0.4c-0.2,0.4 0.1,1 0.6,1.2c0.3,0.1 0.6,0.2 0.9,0.1c0.2,-0.1 0.4,-0.2 0.5,-0.4c0.1,-0.2 0.1,-0.4 0,-0.6c-0.1,-0.3 -0.3,-0.5 -0.6,-0.6c-0.4,-0.1 -0.7,-0.2 -0.9,-0.1" style="fill-rule:nonzero;"/><path d="M59.5,25.6c-0.2,0.3 -0.6,0.4 -0.8,0.2c-0.2,-0.2 -0.3,-0.6 0,-0.9c0.2,-0.3 0.6,-0.4 0.8,-0.2c0.2,0.2 0.2,0.6 0,0.9m-1.6,2.5c-0.2,0.3 -0.6,0.4 -0.8,0.3c-0.2,-0.2 -0.3,-0.6 0,-0.9c0.2,-0.3 0.6,-0.4 0.8,-0.3c0.2,0.2 0.3,0.6 0,0.9m-5.4,-13.8c0.2,-0.6 0.5,-1.7 0.5,-1.7l0.6,0.2c-0.2,0.1 -0.4,0.2 -0.6,0.4c0.1,0.1 0.4,0.1 0.6,0l-0.2,0.6c-0.1,-0.1 -0.2,-0.3 -0.4,-0.4c-0.1,0.5 0.2,0.7 0.4,0.8c0.4,0.2 0.6,0.2 0.7,0.1c0.1,-0.2 -0.1,-0.5 -0.4,-0.4c0,-0.3 0.1,-0.5 0.4,-0.5c0.2,0 0.3,0.2 0.3,0.4c0,-0.5 0.2,-0.9 0.7,-1.1c0.2,0.5 0,0.8 -0.3,1.2c0.2,-0.1 0.4,-0.1 0.5,0.1c0.1,0.2 0.1,0.4 -0.2,0.6c-0.1,-0.3 -0.5,-0.4 -0.6,-0.1c-0.1,0.2 0.1,0.4 0.4,0.6c0.4,0.2 0.7,0.1 0.9,-0.3c-0.1,0 -0.4,0 -0.6,0.1l0.4,-0.8c0,0.1 0.1,0.3 0.3,0.4c0.1,-0.2 0.2,-0.5 0,-0.7l0.9,0.5c-0.3,0 -0.5,0.3 -0.6,0.4c0.2,0.1 0.4,0 0.5,0l-0.5,0.7c0,-0.3 -0.1,-0.5 -0.2,-0.6c-0.2,0.4 -0.1,0.7 0.2,0.9c0.3,0.2 0.6,0.2 0.7,0c0.1,-0.2 -0.1,-0.5 -0.4,-0.4c0,-0.3 0.2,-0.5 0.4,-0.5c0.2,0 0.3,0.2 0.3,0.4c0.1,-0.5 0.4,-0.8 0.9,-0.9c0.1,0.5 -0.1,0.9 -0.6,1.1c0.2,-0.1 0.4,0 0.5,0.1c0.1,0.2 0,0.4 -0.2,0.6c0,-0.3 -0.4,-0.4 -0.5,-0.2c-0.1,0.2 0.1,0.4 0.4,0.6c0.2,0.1 0.5,0.3 0.9,0c-0.1,-0.1 -0.4,-0.2 -0.5,-0.2l0.4,-0.5c0,0.2 0.1,0.4 0.2,0.5c0.1,-0.3 0.1,-0.5 0.1,-0.7l0.5,0.4c0,0 -0.8,0.9 -1.2,1.3l-5.6,-3Zm6.6,7.5c0,-0.1 0,-0.2 0.1,-0.3c0.1,-0.1 0.2,-0.1 0.3,-0.1c0.2,0 0.4,0.1 0.5,0.3c0.2,0.2 0.2,0.4 0.2,0.6c0,0.1 0,0.2 -0.1,0.3c-0.1,0.1 -0.2,0.1 -0.3,0.1c-0.2,0 -0.4,-0.1 -0.5,-0.3c-0.1,-0.2 -0.2,-0.4 -0.2,-0.6m2.4,11.1c0,-0.2 0.2,-0.4 0.4,-0.5c0.2,-0.1 0.4,-0.2 0.6,-0.1c0.1,0 0.2,0.1 0.3,0.2c0.1,0.1 0.1,0.2 0.1,0.3c0,0.2 -0.2,0.4 -0.4,0.5c-0.3,0.2 -0.7,0.2 -0.9,0c-0.1,-0.2 -0.1,-0.3 -0.1,-0.4m-11.5,-16.7c0,0.2 -0.1,0.4 -0.2,0.5c-0.1,0 -0.1,0.1 -0.3,0.1c-0.2,0 -0.4,-0.3 -0.4,-0.6c0,-0.2 0.1,-0.4 0.2,-0.5c0.1,0 0.1,-0.1 0.3,-0.1c0.1,0 0.2,0.1 0.2,0.1c0.2,0.1 0.2,0.3 0.2,0.5m3.6,-7.3c0.2,-0.4 0,-0.9 0.7,-0.9c0.3,0 0.6,0.3 1,0.5c-0.7,0 -1.3,0.1 -1.7,0.4m10.3,9.1c0.4,1.2 1.3,1.6 2,1.3c-1.5,-0.2 -0.3,-2.7 -2.2,-2.7c-0.1,0 -0.2,0 -0.3,0c-0.3,-0.3 -0.7,-0.5 -1.2,-0.5c-0.8,0 -2.2,0.8 -2.2,2.4c0,3.5 4,3.8 4,6.9c0,0.9 -0.7,1.5 -1.4,1.5c-0.7,0 -1.2,-0.8 -1.8,-2c-0.3,-0.6 -0.9,-1.3 -1.5,-2.2c0.2,0.1 0.4,0.2 0.6,0.2c0.2,0 0.4,-0.1 0.6,-0.2c0.1,-0.1 0.2,-0.3 0.2,-0.5c0,-0.3 -0.1,-0.6 -0.3,-0.8c-0.2,-0.2 -0.5,-0.4 -0.8,-0.4c-0.2,0 -0.4,0.1 -0.6,0.2c-0.1,0.1 -0.2,0.3 -0.2,0.5c0,0.1 0,0.2 0.1,0.4c-0.9,-1.1 -1.7,-2.2 -1.7,-2.9c0,-0.5 0.4,-1 0.8,-1.6l0.2,0.1l0.1,-0.1c0.2,-0.2 0.5,-0.5 1.2,-1.3l0.2,-0.2l-0.4,-0.3c0.1,-0.3 0.2,-0.5 0.3,-0.9c0.1,0.6 0.4,0.9 0.8,0.8c-0.3,-0.6 0.3,-1.4 -0.1,-2.8c0.3,0.5 0.8,0.8 1.1,0.7c-0.9,-0.8 0.3,-1.9 -0.9,-3.6c0.4,0.1 0.6,0.1 0.8,-0.1c-1.1,-0.1 -0.6,-1.5 -2.4,-2c0.5,-0.1 0.7,-0.4 0.7,-0.6c-0.6,0.5 -1,-0.5 -2.6,-0.5c-0.1,-0.6 -0.7,-1.2 -1.3,-1.5c0.1,0.5 0,0.9 -0.1,1.2l-5.3,-5.2c-0.2,-0.1 -0.2,-0.2 -0.3,-0.1c0,0.1 0,0.1 0.1,0.3l4.5,5.7c-0.3,0.1 -0.7,0.3 -1,0.4c-0.2,0.1 -0.4,0.3 -0.4,0.6c-0.8,0.4 -1.6,0.9 -1.9,1.3c-0.3,0.1 -0.6,0.2 -0.3,0.7c0.1,0.2 -0.2,0.8 0.5,0.4c0.4,-0.3 1.4,-0.8 1.5,-0.5c0.1,0.2 -0.4,0.4 -0.7,0.5c-0.3,0.1 -0.7,0.4 -0.6,0.5c0.1,0.1 0.3,0 0.3,0.1c0,0.2 0.1,0.3 0.3,0.3c0.1,0 0.3,-0.3 0.4,-0.2c0.1,0.1 -0.1,0.7 -0.2,0.9c0.5,-0.1 0.8,-0.6 0.9,-0.9c0,-0.4 0.1,-0.5 0.2,-0.5c0.1,-0.1 0.2,0.4 0.1,0.7c0.3,-0.1 0.6,-0.4 0.5,-1.1c0.1,-0.1 0.3,-0.2 0.4,-0.2c0.2,0 0.5,0.5 1,0.5c0.9,0 1.4,-0.7 1.4,-1.1c0,-0.3 0,-0.5 -0.1,-0.7c0.3,0.3 0.4,0.7 0.4,1c0,1.3 -2.2,1.9 -3.2,2.7l-0.1,0.1l-1.1,-0.4l-0.1,0.2c0,0 0,0.1 -0.1,0.2c-0.1,0.4 -0.3,1.1 -0.5,1.5l-0.1,0.2l0.1,0.1c-0.6,0.8 -1.1,1.8 -1.2,2.7c-0.3,-0.3 -0.5,-0.5 -0.8,-0.7c0,-0.1 0,-0.2 0.1,-0.3c0,-0.3 -0.1,-0.6 -0.2,-0.7c-0.1,-0.1 -0.3,-0.2 -0.5,-0.2c-0.2,0 -0.4,0.1 -0.5,0.2l-0.1,0.1l-0.1,-0.1c-0.3,-0.3 -0.8,-0.6 -1,-0.9c-0.1,-0.1 -0.2,-0.2 -0.5,-0.2c-0.1,0 -0.3,0 -0.5,0c-0.2,0 -0.2,0.1 -0.4,0.3c-0.1,0.1 -0.3,0.3 -0.6,0.5c0.1,0.1 0.3,0.3 0.4,0.4c0.1,0.1 0.1,0.2 0.2,0.2c0.1,-0.1 0.1,-0.1 0.2,-0.1c0.1,-0.1 0.3,-0.1 0.4,-0.1c0.1,0 0.3,0.1 0.5,0.3c0.1,0.1 0.9,1.3 1.7,2c-0.1,0 -0.2,0.1 -0.2,0.1c-0.3,0.1 -1,0.1 -1.3,0.1c-0.3,0 -0.4,-0.1 -0.6,0.2c-0.1,0.1 -0.2,0.3 -0.3,0.4c-0.1,0.1 -0.2,0.3 0,0.6c0.3,0.5 1.1,1.9 1.3,2.5c0.3,0.6 0.6,0.7 1,0.9c0.5,0.2 1.3,0.7 1.4,0.8l0,-0.5c-0.1,-0.1 -0.6,-0.3 -0.8,-0.4c-0.2,-0.1 -0.2,-0.1 0,-0.1c0.2,0 0.8,0.2 1.2,0.4c-0.1,-0.5 -0.6,-1 -0.8,-1.3c-0.4,-0.1 -0.7,-0.1 -0.9,0c0,0.1 -0.1,0.2 -0.2,0.2c-0.1,0 -0.2,-0.1 -0.2,-0.2c0,-0.1 0.3,-0.2 0.2,-0.5c0,-0.3 -0.4,-0.3 -0.6,-0.3c-0.3,-0.4 -0.6,-1.1 -0.8,-1.3c-0.2,-0.3 -0.1,-0.4 0,-0.5c0.3,-0.2 0.8,0.1 1.9,0.2c0.4,0 0.8,0 1.3,0.1c0.1,1.2 0.6,2.4 2.4,2.9c0.8,0.2 1.7,0.8 2,1.6c-3.5,-0.1 -4,1.3 -4,2.6c0,1.4 1.2,1.4 1.2,2.5c0,0.9 -2.9,1.3 -3.8,1.5c-0.7,0.1 -1.2,0.3 -1.5,0.6c-0.4,0.4 -0.7,0.7 -1.4,1.4c0,0 0.3,0.1 0.6,0l0.5,-0.6c0.1,-0.2 0.2,-0.4 0.3,-0.4c0.1,0 0,0.2 -0.1,0.4l-0.4,0.7c1.7,0.1 1.8,-0.5 1.8,-0.8c0,-0.3 -0.4,-0.4 -0.2,-0.6c0.2,-0.2 0.5,0 0.6,0.2c0.2,0.2 0.3,0.4 0.7,0.2c0,0 3.7,-1.5 4.2,-1.8c0.4,-0.2 0.3,-0.4 0,-0.6c-0.3,-0.2 -0.3,-0.6 -0.3,-1c0,-1.1 0.7,-1.5 1.9,-1.5c0,0.2 0,0.4 0,0.5c0,1.8 2.7,3.5 3.4,3.5c0.3,0 0.8,-0.2 0.8,0.8c0,0.8 0.2,1.3 0,2.2c-0.1,0.9 -0.4,1 -0.9,1.4c-0.5,0.4 -1.1,1.6 -1.3,1.8c0.2,0.2 0.5,0.2 0.7,-0.4c0.2,-0.5 0.4,-0.8 0.6,-0.9c-0.2,0.5 -0.4,1.3 -0.5,1.5c0.7,0.1 1.8,-0.5 1.8,-1c0,-0.5 -0.4,-0.4 -0.4,-0.8c0,-0.1 0.2,-0.3 0.4,-0.3c0.3,0 0.5,0.2 0.5,0.3c0.3,-0.2 0.5,-0.5 0.5,-1.2c0,-0.3 0,-0.6 0,-0.8c0,0 0,0.1 0.1,0.1c0.1,0.2 0.4,0.3 0.6,0.3c0.2,0 0.5,0 0.7,-0.2c0.3,-0.2 0.5,-0.4 0.5,-0.7c0,-0.1 0,-0.1 0,-0.2c0,-0.2 0,-0.3 -0.1,-0.4c-0.1,-0.2 -0.3,-0.3 -0.5,-0.3c-0.3,-0.1 -0.6,0 -0.9,0.2c-0.2,0.2 -0.4,0.4 -0.5,0.7c-0.1,-1 -0.1,-1.9 -0.1,-2.2c0,-0.5 0.1,-0.8 -0.1,-0.9c-0.2,-0.1 -0.4,0.2 -0.6,0.2c-0.3,0 -1,-0.7 -1,-1.5c0,-0.8 0.8,-1.7 0.8,-2.8c0,-0.3 0.2,-0.5 0.3,-0.2c0.2,0.4 0.4,0.8 0.7,1.2c-0.2,1.3 1.2,2.6 2.4,1.6c-0.6,0.1 -1,-0.4 -1.2,-1l0.5,0c0.4,0.5 1.7,0.5 2.1,-0.8c-0.2,0.3 -0.7,0.5 -1,0.4c0.5,-0.4 0.8,-1 0.8,-1.7c0,-3.3 -4,-3.7 -4,-6.7c0,-1.1 1,-1.8 1.7,-1.8c0.3,0 0.5,0.1 0.6,0.2c-0.3,0.3 -0.4,0.7 -0.4,1.2c0.1,2.4 4,2.3 4,3.4c0.5,-1.5 -2.4,-0.9 -2.5,-3.3" style="fill-rule:nonzero;"/></g></g></svg>