<?xml version="1.0" encoding="UTF-8" standalone="no"?><!DOCTYPE svg PUBLIC "-//W3C//DTD SVG 1.1//EN" "http://www.w3.org/Graphics/SVG/1.1/DTD/svg11.dtd"><svg width="100%" height="100%" viewBox="0 0 135 126" version="1.1" xmlns="http://www.w3.org/2000/svg" xmlns:xlink="http://www.w3.org/1999/xlink" xml:space="preserve" style="fill-rule:evenodd;clip-rule:evenodd;stroke-linejoin:round;stroke-miterlimit:1.41421;"><rect id="GDS" x="0" y="0" width="134.771" height="125.235" style="fill:none;"/><clipPath id="_clip1"><rect x="0" y="0" width="134.771" height="125.235"/></clipPath><g clip-path="url(#_clip1)"><g><path d="M-0.122,-2.762l135.442,0l0,131.999l-135.442,0l0,-131.999Zm110.092,58.436l4.369,0.011c-0.059,-1.91 -0.42,-3.554 -1.08,-4.931c-0.66,-1.378 -1.563,-2.521 -2.71,-3.43c-1.147,-0.909 -2.481,-1.576 -4.001,-2.001c-1.52,-0.425 -3.171,-0.639 -4.951,-0.644c-1.586,-0.003 -3.132,0.195 -4.638,0.596c-1.507,0.401 -2.852,1.012 -4.035,1.835c-1.184,0.822 -2.133,1.872 -2.848,3.149c-0.716,1.277 -1.076,2.789 -1.08,4.537c-0.004,1.586 0.308,2.906 0.937,3.96c0.629,1.053 1.468,1.913 2.518,2.579c1.051,0.667 2.239,1.204 3.565,1.612c1.326,0.407 2.677,0.767 4.052,1.078c1.375,0.311 2.725,0.614 4.052,0.908c1.326,0.295 2.515,0.678 3.566,1.15c1.051,0.472 1.891,1.081 2.52,1.827c0.629,0.746 0.943,1.718 0.94,2.916c-0.004,1.262 -0.265,2.298 -0.785,3.105c-0.52,0.808 -1.201,1.446 -2.044,1.913c-0.843,0.468 -1.791,0.797 -2.843,0.989c-1.053,0.191 -2.097,0.286 -3.133,0.283c-1.294,-0.003 -2.556,-0.168 -3.786,-0.495c-1.229,-0.327 -2.304,-0.831 -3.225,-1.513c-0.921,-0.682 -1.663,-1.55 -2.227,-2.603c-0.564,-1.054 -0.844,-2.309 -0.84,-3.766l-4.37,-0.01c-0.005,2.104 0.371,3.925 1.127,5.465c0.757,1.539 1.79,2.804 3.098,3.795c1.309,0.99 2.828,1.731 4.559,2.22c1.731,0.49 3.567,0.738 5.509,0.743c1.586,0.004 3.181,-0.179 4.784,-0.547c1.603,-0.368 3.054,-0.963 4.35,-1.786c1.297,-0.822 2.36,-1.887 3.189,-3.196c0.828,-1.309 1.245,-2.886 1.25,-4.731c0.004,-1.716 -0.308,-3.141 -0.936,-4.275c-0.629,-1.135 -1.468,-2.076 -2.518,-2.823c-1.05,-0.747 -2.239,-1.341 -3.565,-1.781c-1.326,-0.44 -2.676,-0.824 -4.051,-1.151c-1.375,-0.327 -2.726,-0.63 -4.052,-0.909c-1.327,-0.278 -2.515,-0.629 -3.566,-1.052c-1.051,-0.424 -1.892,-0.968 -2.521,-1.633c-0.63,-0.665 -0.943,-1.532 -0.94,-2.6c0.002,-1.133 0.223,-2.08 0.662,-2.839c0.439,-0.76 1.023,-1.365 1.753,-1.817c0.729,-0.451 1.563,-0.773 2.503,-0.964c0.939,-0.192 1.894,-0.287 2.865,-0.285c2.395,0.006 4.361,0.57 5.895,1.69c1.535,1.121 2.429,2.928 2.682,5.421Zm-65.211,20.036l1.203,4.324l2.913,0.008l0.046,-18.257l-15.198,-0.038l-0.01,3.884l11.071,0.028c0.061,1.586 -0.153,3.067 -0.642,4.441c-0.489,1.375 -1.213,2.571 -2.17,3.588c-0.958,1.017 -2.133,1.815 -3.526,2.395c-1.394,0.579 -2.997,0.866 -4.809,0.862c-1.943,-0.005 -3.649,-0.39 -5.12,-1.154c-1.471,-0.765 -2.707,-1.787 -3.707,-3.069c-1,-1.281 -1.757,-2.755 -2.271,-4.424c-0.514,-1.668 -0.768,-3.409 -0.764,-5.221c0.005,-1.845 0.236,-3.649 0.693,-5.412c0.458,-1.763 1.166,-3.332 2.124,-4.705c0.959,-1.373 2.192,-2.479 3.699,-3.317c1.507,-0.838 3.313,-1.254 5.417,-1.249c1.295,0.004 2.516,0.16 3.665,0.471c1.148,0.31 2.175,0.774 3.079,1.391c0.905,0.618 1.664,1.404 2.277,2.361c0.612,0.956 1.03,2.098 1.253,3.426l4.613,0.012c-0.319,-2.04 -0.921,-3.782 -1.808,-5.224c-0.886,-1.443 -1.984,-2.636 -3.292,-3.578c-1.309,-0.941 -2.796,-1.633 -4.462,-2.074c-1.666,-0.441 -3.438,-0.664 -5.315,-0.669c-2.752,-0.007 -5.157,0.497 -7.215,1.511c-2.058,1.015 -3.777,2.378 -5.157,4.09c-1.38,1.713 -2.421,3.709 -3.122,5.989c-0.702,2.281 -1.056,4.683 -1.062,7.208c-0.006,2.266 0.361,4.452 1.1,6.558c0.74,2.106 1.819,3.97 3.24,5.592c1.42,1.622 3.148,2.913 5.185,3.873c2.037,0.96 4.35,1.443 6.94,1.449c2.039,0.005 4.063,-0.386 6.072,-1.174c2.009,-0.788 3.696,-2.087 5.06,-3.896Zm11,-30.32l-0.086,34.669l11.896,0.029c2.881,0.007 5.374,-0.391 7.48,-1.195c2.106,-0.804 3.841,-1.973 5.204,-3.507c1.364,-1.534 2.372,-3.426 3.025,-5.674c0.653,-2.248 0.983,-4.828 0.99,-7.742c0.014,-5.567 -1.416,-9.714 -4.29,-12.44c-2.874,-2.727 -6.982,-4.096 -12.323,-4.11l-11.896,-0.03Zm4.536,30.796l0.067,-26.9l7.769,0.02c2.136,0.005 3.932,0.309 5.387,0.911c1.456,0.603 2.643,1.48 3.563,2.631c0.919,1.152 1.579,2.545 1.98,4.181c0.4,1.636 0.598,3.489 0.593,5.561c-0.005,2.136 -0.228,3.957 -0.669,5.461c-0.441,1.504 -1.002,2.757 -1.685,3.759c-0.682,1.001 -1.453,1.793 -2.312,2.373c-0.859,0.581 -1.726,1.023 -2.601,1.329c-0.875,0.305 -1.701,0.497 -2.478,0.576c-0.777,0.079 -1.424,0.118 -1.942,0.117l-7.672,-0.019Z" style="fill:#009dff;"/></g></g></svg>