<svg width="175" height="175" xmlns="http://www.w3.org/2000/svg"><title>one-team-logo</title><defs><linearGradient x1="24.014%" y1="0%" x2="76.641%" y2="100%" id="a"><stop stop-color="#FF8300" offset="0%"/><stop stop-color="#F60BC2" offset="100%"/></linearGradient></defs><path d="M11.32 145.324l134.676 18.927 18.927-134.676L30.247 10.647 11.319 145.324zM25.99 5l144.58 20.32-20.32 144.578L5.672 149.58 25.992 5zm26.78 60.12c3.137.065 5.732-.992 7.782-3.173 2.051-2.181 3.37-5.225 3.955-9.131l.645-4.356c.143-.976.202-2.011.176-3.105-.104-2.904-.876-5.192-2.315-6.865-1.438-1.674-3.42-2.536-5.947-2.588-2.044-.04-3.88.416-5.508 1.367-1.627.95-2.988 2.402-4.082 4.355-1.094 1.953-1.83 4.193-2.207 6.719l-.722 4.727a16.278 16.278 0 0 0-.118 2.968c.13 2.826.928 5.033 2.393 6.621 1.465 1.589 3.447 2.41 5.947 2.461zm6.777-16.855l-.684 4.824c-.378 2.604-1.042 4.48-1.992 5.625-.95 1.146-2.168 1.693-3.653 1.64-2.083-.09-3.157-1.503-3.222-4.238-.04-.729.02-1.738.176-3.027l.683-4.785c.378-2.656 1.045-4.606 2.002-5.85.957-1.243 2.217-1.832 3.78-1.767 2.03.078 3.079 1.569 3.144 4.472 0 .73-.078 1.765-.234 3.106zM85.876 64.73l4.941-28.438h-5.586L81.95 55.16l-4.98-18.867H71.48L66.56 64.73h5.606l3.281-18.848 4.96 18.848h5.47zm21.035-12.305l.82-4.629H99.04l1.172-6.719h10.214l.84-4.785h-15.84L90.505 64.73h15.859l.84-4.766H96.93l1.309-7.539h8.672zm-34.414 84.082l1.797-11.738H64.8l-.761 4.336h3.925l-.996 5.234c-1.25.69-2.382 1.022-3.398.996-1.08-.026-1.917-.368-2.51-1.025-.592-.658-.921-1.716-.986-3.174-.04-.885.026-1.953.195-3.203l.781-5.488.293-1.465c.847-3.66 2.618-5.436 5.313-5.332 1.823.065 2.819 1.113 2.988 3.144l.059 1.563 5.449.02c-.026-3.1-.726-5.44-2.1-7.022-1.373-1.582-3.414-2.4-6.123-2.451-3.177-.065-5.755.983-7.734 3.144-1.98 2.162-3.268 5.222-3.867 9.18l-.703 4.707a18.322 18.322 0 0 0-.137 3.027c.052 1.823.42 3.434 1.103 4.834.684 1.4 1.65 2.468 2.9 3.203 1.25.736 2.729 1.11 4.434 1.123 1.94.026 3.757-.276 5.45-.908 1.692-.631 3.066-1.533 4.12-2.705zm13.164 3.613c3.138.065 5.732-.992 7.783-3.173 2.05-2.181 3.37-5.225 3.955-9.131l.645-4.356c.143-.976.201-2.011.175-3.105-.104-2.904-.875-5.192-2.314-6.865-1.439-1.674-3.421-2.536-5.947-2.588-2.045-.04-3.88.416-5.508 1.367-1.628.95-2.988 2.402-4.082 4.355-1.094 1.953-1.83 4.193-2.207 6.719l-.723 4.727a16.278 16.278 0 0 0-.117 2.968c.13 2.826.928 5.033 2.393 6.621 1.464 1.589 3.447 2.41 5.947 2.461zm6.777-16.855l-.683 4.824c-.378 2.604-1.042 4.48-1.993 5.625-.95 1.146-2.168 1.693-3.652 1.64-2.083-.09-3.158-1.503-3.223-4.238-.039-.729.02-1.738.176-3.027l.684-4.785c.377-2.656 1.045-4.606 2.002-5.85.957-1.243 2.216-1.832 3.779-1.767 2.031.078 3.08 1.569 3.145 4.472 0 .73-.079 1.765-.235 3.106zm16.934 8.594l-1.387-20.567h-6.074l3.457 28.438h5.84l12.402-28.438h-6.387l-7.851 20.567zM60.938 79.077l.84-4.785h-19.16l-.84 4.785h6.719l-4.102 23.653h5.625l4.102-23.653h6.816zm15.684 11.348l.82-4.629h-8.691l1.172-6.719h10.214l.84-4.785h-15.84l-4.922 28.438h15.86l.84-4.766H66.64l1.309-7.539h8.672zm17.07 6.484l.488 5.82h5.801l-3.73-28.437h-5.137L77.559 102.73h6.094l2.48-5.82h7.559zm-5.508-4.785l4.317-10.078.8 10.078h-5.117zm26.778-17.832h-7.227l-4.922 28.438h5.606l1.289-7.5 1.62-12.246 2.15 19.746h3.808l8.71-19.102-2.46 11.23-1.367 7.872h5.625l4.941-28.438h-7.383l-8.73 20.45-1.66-20.45z" fill-rule="nonzero" fill="url(#a)"/></svg>