<?xml version="1.0" encoding="UTF-8" standalone="no"?><!DOCTYPE svg PUBLIC "-//W3C//DTD SVG 1.1//EN" "http://www.w3.org/Graphics/SVG/1.1/DTD/svg11.dtd"><svg width="100%" height="100%" viewBox="0 0 175 175" version="1.1" xmlns="http://www.w3.org/2000/svg" xmlns:xlink="http://www.w3.org/1999/xlink" xml:space="preserve" style="fill-rule:evenodd;clip-rule:evenodd;stroke-linejoin:round;stroke-miterlimit:1.41421;"><path id="Combined.-Shape" d="M11.319,145.324l134.677,18.927l18.927,-134.676l-134.676,-18.928l-18.928,134.677Zm14.672,-140.324l144.579,20.319l-20.319,144.579l-144.579,-20.319l20.319,-144.579Zm26.779,60.12c3.138,0.065 5.733,-0.992 7.783,-3.173c2.051,-2.181 3.37,-5.225 3.955,-9.131l0.645,-4.356c0.143,-0.976 0.202,-2.011 0.176,-3.105c-0.104,-2.904 -0.876,-5.192 -2.315,-6.865c-1.438,-1.674 -3.421,-2.536 -5.947,-2.588c-2.044,-0.039 -3.88,0.416 -5.508,1.367c-1.627,0.95 -2.988,2.402 -4.082,4.355c-1.094,1.953 -1.829,4.193 -2.207,6.719l-0.722,4.727c-0.131,1.002 -0.17,1.992 -0.118,2.968c0.131,2.826 0.928,5.033 2.393,6.621c1.465,1.589 3.447,2.409 5.947,2.461Zm6.778,-16.855l-0.684,4.824c-0.378,2.604 -1.042,4.479 -1.992,5.625c-0.951,1.146 -2.168,1.693 -3.653,1.641c-2.083,-0.091 -3.157,-1.504 -3.222,-4.239c-0.039,-0.729 0.019,-1.738 0.176,-3.027l0.683,-4.785c0.378,-2.656 1.045,-4.606 2.002,-5.85c0.957,-1.243 2.217,-1.832 3.779,-1.767c2.032,0.078 3.08,1.569 3.145,4.472c0,0.73 -0.078,1.765 -0.234,3.106Zm26.328,16.465l4.941,-28.438l-5.586,0l-3.281,18.867l-4.981,-18.867l-5.488,0l-4.922,28.438l5.606,0l3.281,-18.848l4.961,18.848l5.469,0Zm21.035,-12.305l0.82,-4.629l-8.691,0l1.172,-6.719l10.214,0l0.84,-4.785l-15.84,0l-4.921,28.438l15.859,0l0.84,-4.766l-10.274,0l1.309,-7.539l8.672,0Zm-34.414,84.082l1.797,-11.738l-9.493,0l-0.761,4.336l3.925,0l-0.996,5.234c-1.25,0.69 -2.382,1.022 -3.398,0.996c-1.081,-0.026 -1.917,-0.368 -2.51,-1.025c-0.592,-0.658 -0.921,-1.716 -0.986,-3.174c-0.039,-0.885 0.026,-1.953 0.195,-3.203l0.781,-5.488l0.293,-1.465c0.847,-3.659 2.618,-5.436 5.313,-5.332c1.823,0.065 2.819,1.113 2.988,3.144l0.059,1.563l5.449,0.019c-0.026,-3.099 -0.726,-5.439 -2.1,-7.021c-1.373,-1.582 -3.414,-2.399 -6.123,-2.451c-3.177,-0.065 -5.755,0.983 -7.734,3.144c-1.979,2.162 -3.268,5.222 -3.867,9.18l-0.703,4.707c-0.131,1.029 -0.176,2.038 -0.137,3.027c0.052,1.823 0.42,3.434 1.103,4.834c0.684,1.4 1.651,2.468 2.901,3.203c1.25,0.736 2.728,1.11 4.433,1.123c1.941,0.026 3.757,-0.276 5.45,-0.908c1.692,-0.631 3.066,-1.533 4.121,-2.705Zm13.164,3.613c3.138,0.065 5.732,-0.992 7.783,-3.173c2.051,-2.181 3.369,-5.225 3.955,-9.131l0.645,-4.356c0.143,-0.976 0.201,-2.011 0.175,-3.105c-0.104,-2.904 -0.875,-5.192 -2.314,-6.865c-1.439,-1.674 -3.421,-2.536 -5.947,-2.588c-2.045,-0.039 -3.881,0.416 -5.508,1.367c-1.628,0.95 -2.988,2.402 -4.082,4.355c-1.094,1.953 -1.83,4.193 -2.207,6.719l-0.723,4.727c-0.13,1.002 -0.169,1.992 -0.117,2.968c0.13,2.826 0.928,5.033 2.393,6.621c1.464,1.589 3.447,2.409 5.947,2.461Zm6.777,-16.855l-0.683,4.824c-0.378,2.604 -1.042,4.479 -1.993,5.625c-0.95,1.146 -2.168,1.693 -3.652,1.641c-2.083,-0.091 -3.158,-1.504 -3.223,-4.239c-0.039,-0.729 0.02,-1.738 0.176,-3.027l0.684,-4.785c0.377,-2.656 1.045,-4.606 2.002,-5.85c0.957,-1.243 2.216,-1.832 3.779,-1.767c2.031,0.078 3.079,1.569 3.145,4.472c0,0.73 -0.079,1.765 -0.235,3.106Zm16.934,8.594l-1.387,-20.567l-6.074,0l3.457,28.438l5.84,0l12.402,-28.438l-6.387,0l-7.851,20.567Zm-48.434,-52.782l0.84,-4.785l-19.16,0l-0.84,4.785l6.719,0l-4.102,23.653l5.625,0l4.102,-23.653l6.816,0Zm15.684,11.348l0.82,-4.629l-8.691,0l1.172,-6.719l10.214,0l0.84,-4.785l-15.84,0l-4.922,28.438l15.86,0l0.84,-4.766l-10.274,0l1.309,-7.539l8.672,0Zm17.07,6.484l0.488,5.821l5.801,0l-3.73,-28.438l-5.137,0l-13.555,28.438l6.094,0l2.48,-5.821l7.559,0Zm-5.508,-4.785l4.317,-10.078l0.8,10.078l-5.117,0Zm26.778,-17.832l-7.227,0l-4.922,28.438l5.606,0l1.289,-7.5l1.621,-12.246l2.148,19.746l3.809,0l8.711,-19.102l-2.461,11.231l-1.367,7.871l5.625,0l4.941,-28.438l-7.383,0l-8.73,20.449l-1.66,-20.449Z" style="fill-rule:nonzero;"/></svg>