<?xml version="1.0" encoding="UTF-8" standalone="no"?>
<svg width="175px" height="175px" viewBox="0 0 175 175" version="1.1" xmlns="http://www.w3.org/2000/svg" xmlns:xlink="http://www.w3.org/1999/xlink">
    <!-- Generator: Sketch 43.1 (39012) - http://www.bohemiancoding.com/sketch -->
    <title>one-team-logo</title>
    <desc>Created with Sketch.</desc>
    <defs>
        <linearGradient x1="24.0136317%" y1="0%" x2="76.6407308%" y2="100%" id="linearGradient-1">
            <stop stop-color="#FF8300" offset="0%"></stop>
            <stop stop-color="#F60BC2" offset="100%"></stop>
        </linearGradient>
    </defs>
    <g id="Page-1" stroke="none" stroke-width="1" fill="none" fill-rule="evenodd">
        <g id="one-team-logo" fill-rule="nonzero" fill="url(#linearGradient-1)">
            <path d="M11.3192659,145.323663 L145.995723,164.251205 L164.923265,29.5747476 L30.2468076,10.6472058 L11.3192659,145.323663 Z M25.9913328,5 L170.570471,25.3192727 L150.251198,169.898411 L5.67206002,149.579138 L25.9913328,5 Z M52.7701704,65.1203892 C55.908207,65.1854937 58.5025821,64.1275616 60.5533736,61.9465611 C62.6041651,59.7655606 63.9225113,56.7219712 64.5084517,52.8157017 L65.1529829,48.460233 C65.2962128,47.4836656 65.354806,46.4485197 65.3287642,45.3547642 C65.224597,42.4511039 64.4531203,40.1627153 63.0143111,38.4895298 C61.5755018,36.8163444 59.5930997,35.9537228 57.0670454,35.9016392 C55.0227644,35.8625765 53.1868452,36.3183011 51.5592329,37.2688267 C49.9316206,38.2193523 48.5709572,39.6711607 47.4772017,41.6242955 C46.3834462,43.5774302 45.6477765,45.8169912 45.2701704,48.3430455 L44.5475142,53.069608 C44.4173052,54.0722171 44.3782431,55.0617906 44.4303267,56.038358 C44.5605357,58.8638929 45.3580537,61.0709021 46.8229048,62.6594517 C48.2877559,64.2480013 50.2701579,65.0683056 52.7701704,65.1203892 Z M59.5475142,48.2649205 L58.8639204,53.0891392 C58.4863144,55.6933189 57.8222585,57.5683002 56.8717329,58.7141392 C55.9212074,59.8599783 54.7037716,60.4068478 53.2193892,60.3547642 C51.1360454,60.2636179 50.0618374,58.8508716 49.9967329,56.116483 C49.9576702,55.3873127 50.0162634,54.3782082 50.1725142,53.0891392 L50.8561079,48.303983 C51.233714,45.6477197 51.901025,43.6978694 52.8580611,42.4543736 C53.8150971,41.2108778 55.0748501,40.621691 56.6373579,40.6867955 C58.6686181,40.7649209 59.7167847,42.2557914 59.7818892,45.1594517 C59.7818892,45.888622 59.703765,46.9237679 59.5475142,48.2649205 Z M85.8756392,64.7297642 L90.8170454,36.2922642 L85.2311079,36.2922642 L81.9498579,55.1594517 L76.9693892,36.2922642 L71.4811079,36.2922642 L66.5592329,64.7297642 L72.1647017,64.7297642 L75.4459517,45.882108 L80.4068892,64.7297642 L85.8756392,64.7297642 Z M106.910795,52.4250767 L107.731108,47.7961705 L99.0397017,47.7961705 L100.211577,41.0774205 L110.42642,41.0774205 L111.266264,36.2922642 L95.4264204,36.2922642 L90.5045454,64.7297642 L106.36392,64.7297642 L107.203764,59.9641392 L96.9303267,59.9641392 L98.2389204,52.4250767 L106.910795,52.4250767 Z M72.4967329,136.507108 L74.2936079,124.768827 L64.8014204,124.768827 L64.0397017,129.104764 L67.9654829,129.104764 L66.9693892,134.339139 C65.7193829,135.029247 64.5865818,135.361275 63.5709517,135.335233 C62.4902171,135.309191 61.6536369,134.967398 61.0611861,134.309842 C60.4687352,133.652287 60.1399624,132.594355 60.0748579,131.136014 C60.0357952,130.250593 60.1008988,129.182895 60.2701704,127.932889 L61.0514204,122.444608 L61.3443892,120.979764 C62.1907476,117.320892 63.9615632,115.543566 66.6568892,115.647733 C68.479815,115.712837 69.4758988,116.761004 69.6451704,118.792264 L69.7037642,120.354764 L75.1529829,120.374295 C75.1269411,117.275322 74.4270783,114.93485 73.0533736,113.352811 C71.6796688,111.770772 69.6386736,110.953723 66.9303267,110.901639 C63.7532275,110.836535 61.1751283,111.884701 59.1959517,114.04617 C57.2167751,116.20764 55.9277255,119.267505 55.3287642,123.225858 L54.6256392,127.932889 C54.4954302,128.96154 54.4498577,129.970645 54.4889204,130.960233 C54.541004,132.783159 54.9088389,134.394471 55.5924361,135.794217 C56.2760332,137.193964 57.2428204,138.261662 58.4928267,138.997342 C59.7428329,139.733023 61.2206827,140.107368 62.9264204,140.120389 C64.8665343,140.146431 66.6829224,139.8437 68.3756392,139.212186 C70.068356,138.580673 71.4420402,137.678989 72.4967329,136.507108 Z M85.6607954,140.120389 C88.798832,140.185494 91.3932071,139.127562 93.4439986,136.946561 C95.4947901,134.765561 96.8131363,131.721971 97.3990767,127.815702 L98.0436079,123.460233 C98.1868378,122.483666 98.245431,121.44852 98.2193892,120.354764 C98.115222,117.451104 97.3437453,115.162715 95.9049361,113.48953 C94.4661268,111.816344 92.4837247,110.953723 89.9576704,110.901639 C87.9133894,110.862577 86.0774702,111.318301 84.4498579,112.268827 C82.8222456,113.219352 81.4615822,114.671161 80.3678267,116.624295 C79.2740712,118.57743 78.5384015,120.816991 78.1607954,123.343045 L77.4381392,128.069608 C77.3079302,129.072217 77.2688681,130.061791 77.3209517,131.038358 C77.4511607,133.863893 78.2486787,136.070902 79.7135298,137.659452 C81.1783809,139.248001 83.1607829,140.068306 85.6607954,140.120389 Z M92.4381392,123.26492 L91.7545454,128.089139 C91.3769394,130.693319 90.7128835,132.5683 89.7623579,133.714139 C88.8118324,134.859978 87.5943966,135.406848 86.1100142,135.354764 C84.0266704,135.263618 82.9524624,133.850872 82.8873579,131.116483 C82.8482952,130.387313 82.9068884,129.378208 83.0631392,128.089139 L83.7467329,123.303983 C84.124339,120.64772 84.79165,118.697869 85.7486861,117.454374 C86.7057221,116.210878 87.9654751,115.621691 89.5279829,115.686795 C91.5592431,115.764921 92.6074097,117.255791 92.6725142,120.159452 C92.6725142,120.888622 92.59439,121.923768 92.4381392,123.26492 Z M109.371733,131.85867 L107.985014,111.292264 L101.910795,111.292264 L105.367827,139.729764 L111.20767,139.729764 L123.610014,111.292264 L117.223295,111.292264 L109.371733,131.85867 Z M60.9381392,79.0774205 L61.7779829,74.2922642 L42.6178267,74.2922642 L41.7779829,79.0774205 L48.4967329,79.0774205 L44.3951704,102.729764 L50.0201704,102.729764 L54.1217329,79.0774205 L60.9381392,79.0774205 Z M76.6217329,90.4250767 L77.4420454,85.7961705 L68.7506392,85.7961705 L69.9225142,79.0774205 L80.1373579,79.0774205 L80.9772017,74.2922642 L65.1373579,74.2922642 L60.2154829,102.729764 L76.0748579,102.729764 L76.9147017,97.9641392 L66.6412642,97.9641392 L67.9498579,90.4250767 L76.6217329,90.4250767 Z M93.6920454,96.9094517 L94.1803267,102.729764 L99.9811079,102.729764 L96.2506392,74.2922642 L91.1139204,74.2922642 L77.5592329,102.729764 L83.6529829,102.729764 L86.1334517,96.9094517 L93.6920454,96.9094517 Z M88.1842329,92.1242955 L92.5006392,82.0461705 L93.3014204,92.1242955 L88.1842329,92.1242955 Z M114.961577,74.2922642 L107.735014,74.2922642 L102.813139,102.729764 L108.418608,102.729764 L109.70767,95.2297642 L111.328764,82.9836705 L113.477202,102.729764 L117.285795,102.729764 L125.996733,83.6282017 L123.535795,94.8586705 L122.168608,102.729764 L127.793608,102.729764 L132.735014,74.2922642 L125.352202,74.2922642 L116.621733,94.741483 L114.961577,74.2922642 Z" id="Combined-Shape"></path>
        </g>
    </g>
</svg>